<?xml version="1.0" encoding="utf-8" ?>
<svg baseProfile="full" height="100%" version="1.1" width="100%" xmlns="http://www.w3.org/2000/svg" xmlns:ev="http://www.w3.org/2001/xml-events" xmlns:xlink="http://www.w3.org/1999/xlink"><defs /><path d="M 0 0L 0.5025253169416735 0.5025253169416735L 0.5025253169416735 1.213203435596426L 0.0 0.7106781186547527L 0 0" fill="none" stroke="black" /><path d="M 1.2132034355964258 1.2132034355964258L 0.7106781186547526 1.7157287525380993L 0.0 1.7157287525380993L 0.5025253169416735 1.213203435596426L 1.2132034355964258 1.2132034355964258" fill="none" stroke="black" /><path d="M 0.7106781186547526 1.7157287525380993L 1.2132034355964258 2.218254069479773L 1.2132034355964258 2.9289321881345254L 0.7106781186547527 2.426406871192852L 0.7106781186547526 1.7157287525380993" fill="none" stroke="black" /><path d="M 1.2132034355964258 1.2132034355964258L 0.5025253169416735 0.5025253169416735L 0.5025253169416735 1.213203435596426L 1.2132034355964258 1.2132034355964258" fill="none" stroke="black" /><path d="M 1.2132034355964258 1.2132034355964258L 1.2132034355964258 2.218254069479773L 0.7106781186547526 1.7157287525380993L 1.2132034355964258 1.2132034355964258" fill="none" stroke="black" /><path d="M 0.0 1.7157287525380993L 0.7106781186547527 2.426406871192852L 0.7106781186547526 1.7157287525380993L 0.0 1.7157287525380993" fill="none" stroke="black" /><path d="M 0.0 1.7157287525380993L 0.0 0.7106781186547527L 0.5025253169416735 1.213203435596426L 0.0 1.7157287525380993" fill="none" stroke="black" /><path d="M 2.928932188134525 2.928932188134525L 2.4264068711928513 3.431457505076198L 1.7157287525380989 3.431457505076198L 2.2182540694797726 2.928932188134525L 2.928932188134525 2.928932188134525" fill="none" stroke="black" /><path d="M 1.7157287525380989 4.14213562373095L 1.2132034355964258 3.6396103067892778L 1.2132034355964258 2.9289321881345254L 1.7157287525380989 3.431457505076198L 1.7157287525380989 4.14213562373095" fill="none" stroke="black" /><path d="M 1.2132034355964258 3.6396103067892778L 0.7106781186547522 4.142135623730951L 0.0 4.142135623730951L 0.5025253169416732 3.6396103067892778L 1.2132034355964258 3.6396103067892778" fill="none" stroke="black" /><path d="M 1.7157287525380989 4.14213562373095L 2.4264068711928513 3.431457505076198L 1.7157287525380989 3.431457505076198L 1.7157287525380989 4.14213562373095" fill="none" stroke="black" /><path d="M 1.7157287525380989 4.14213562373095L 0.7106781186547522 4.142135623730951L 1.2132034355964258 3.6396103067892778L 1.7157287525380989 4.14213562373095" fill="none" stroke="black" /><path d="M 1.2132034355964258 2.9289321881345254L 0.5025253169416732 3.6396103067892778L 1.2132034355964258 3.6396103067892778L 1.2132034355964258 2.9289321881345254" fill="none" stroke="black" /><path d="M 1.2132034355964258 2.9289321881345254L 2.2182540694797726 2.928932188134525L 1.7157287525380989 3.431457505076198L 1.2132034355964258 2.9289321881345254" fill="none" stroke="black" /><path d="M 1.7157287525380989 4.14213562373095L 2.218254069479772 4.644660940672623L 2.2182540694797726 5.355339059327377L 1.715728752538099 4.852813742385703L 1.7157287525380989 4.14213562373095" fill="none" stroke="black" /><path d="M 2.928932188134525 5.355339059327377L 2.4264068711928517 5.85786437626905L 1.7157287525380993 5.85786437626905L 2.2182540694797726 5.355339059327377L 2.928932188134525 5.355339059327377" fill="none" stroke="black" /><path d="M 2.4264068711928517 5.85786437626905L 2.928932188134525 6.360389693210723L 2.928932188134525 7.071067811865475L 2.4264068711928517 6.568542494923801L 2.4264068711928517 5.85786437626905" fill="none" stroke="black" /><path d="M 2.928932188134525 5.355339059327377L 2.218254069479772 4.644660940672623L 2.2182540694797726 5.355339059327377L 2.928932188134525 5.355339059327377" fill="none" stroke="black" /><path d="M 2.928932188134525 5.355339059327377L 2.928932188134525 6.360389693210723L 2.4264068711928517 5.85786437626905L 2.928932188134525 5.355339059327377" fill="none" stroke="black" /><path d="M 1.7157287525380993 5.85786437626905L 2.4264068711928517 6.568542494923801L 2.4264068711928517 5.85786437626905L 1.7157287525380993 5.85786437626905" fill="none" stroke="black" /><path d="M 1.7157287525380993 5.85786437626905L 1.715728752538099 4.852813742385703L 2.2182540694797726 5.355339059327377L 1.7157287525380993 5.85786437626905" fill="none" stroke="black" /><path d="M 2.928932188134525 2.928932188134525L 2.4264068711928517 2.4264068711928517L 1.7157287525380993 2.4264068711928517L 2.2182540694797726 2.928932188134525L 2.928932188134525 2.928932188134525" fill="none" stroke="black" /><path d="M 1.7157287525380993 1.7157287525380993L 1.2132034355964258 2.218254069479773L 1.2132034355964258 2.9289321881345254L 1.7157287525380993 2.4264068711928517L 1.7157287525380993 1.7157287525380993" fill="none" stroke="black" /><path d="M 1.7157287525380993 1.7157287525380993L 2.4264068711928517 2.4264068711928517L 1.7157287525380993 2.4264068711928517L 1.7157287525380993 1.7157287525380993" fill="none" stroke="black" /><path d="M 1.2132034355964258 1.2132034355964258L 1.2132034355964258 2.218254069479773L 1.7157287525380993 1.7157287525380993L 1.2132034355964258 1.2132034355964258" fill="none" stroke="black" /><path d="M 1.2132034355964258 2.9289321881345254L 2.2182540694797726 2.928932188134525L 1.7157287525380993 2.4264068711928517L 1.2132034355964258 2.9289321881345254" fill="none" stroke="black" /><path d="M 2.928932188134525 2.928932188134525L 2.928932188134525 3.639610306789277L 2.4264068711928513 4.14213562373095L 2.4264068711928513 3.431457505076198L 2.928932188134525 2.928932188134525" fill="none" stroke="black" /><path d="M 2.928932188134525 4.644660940672623L 2.218254069479772 4.644660940672623L 1.7157287525380989 4.14213562373095L 2.4264068711928513 4.14213562373095L 2.928932188134525 4.644660940672623" fill="none" stroke="black" /><path d="M 2.928932188134525 4.644660940672623L 2.928932188134525 3.639610306789277L 2.4264068711928513 4.14213562373095L 2.928932188134525 4.644660940672623" fill="none" stroke="black" /><path d="M 2.928932188134525 5.355339059327377L 2.218254069479772 4.644660940672623L 2.928932188134525 4.644660940672623L 2.928932188134525 5.355339059327377" fill="none" stroke="black" /><path d="M 1.7157287525380989 4.14213562373095L 2.4264068711928513 3.431457505076198L 2.4264068711928513 4.14213562373095L 1.7157287525380989 4.14213562373095" fill="none" stroke="black" /><path d="M 0.0 4.142135623730951L 0.5025253169416735 4.644660940672624L 1.2132034355964258 4.644660940672624L 0.7106781186547524 4.142135623730951L 0.0 4.142135623730951" fill="none" stroke="black" /><path d="M 1.2132034355964258 5.355339059327377L 1.715728752538099 4.8528137423857025L 1.7157287525380989 4.14213562373095L 1.2132034355964258 4.644660940672624L 1.2132034355964258 5.355339059327377" fill="none" stroke="black" /><path d="M 1.2132034355964258 5.355339059327377L 0.5025253169416735 4.644660940672624L 1.2132034355964258 4.644660940672624L 1.2132034355964258 5.355339059327377" fill="none" stroke="black" /><path d="M 1.7157287525380993 5.85786437626905L 1.715728752538099 4.8528137423857025L 1.2132034355964258 5.355339059327377L 1.7157287525380993 5.85786437626905" fill="none" stroke="black" /><path d="M 1.7157287525380989 4.14213562373095L 0.7106781186547524 4.142135623730951L 1.2132034355964258 4.644660940672624L 1.7157287525380989 4.14213562373095" fill="none" stroke="black" /><path d="M 0.0 4.142135623730951L 0.0 3.4314575050761986L 0.5025253169416735 2.9289321881345254L 0.5025253169416735 3.6396103067892778L 0.0 4.142135623730951" fill="none" stroke="black" /><path d="M 0.0 2.4264068711928517L 0.7106781186547527 2.426406871192852L 1.2132034355964258 2.9289321881345254L 0.5025253169416735 2.9289321881345254L 0.0 2.4264068711928517" fill="none" stroke="black" /><path d="M 0.0 2.4264068711928517L 0.0 3.4314575050761986L 0.5025253169416735 2.9289321881345254L 0.0 2.4264068711928517" fill="none" stroke="black" /><path d="M 0.0 1.7157287525380993L 0.7106781186547527 2.426406871192852L 0.0 2.4264068711928517L 0.0 1.7157287525380993" fill="none" stroke="black" /><path d="M 1.2132034355964258 2.9289321881345254L 0.5025253169416735 3.6396103067892778L 0.5025253169416735 2.9289321881345254L 1.2132034355964258 2.9289321881345254" fill="none" stroke="black" /><path d="M 2.928932188134525 7.071067811865475L 3.6396103067892778 7.071067811865475L 4.142135623730951 7.573593128807148L 3.4314575050761986 7.573593128807148L 2.928932188134525 7.071067811865475" fill="none" stroke="black" /><path d="M 4.644660940672624 7.071067811865475L 4.644660940672624 7.781745930520227L 4.142135623730951 8.2842712474619L 4.142135623730951 7.573593128807148L 4.644660940672624 7.071067811865475" fill="none" stroke="black" /><path d="M 4.644660940672624 7.781745930520227L 5.3553390593273775 7.781745930520227L 5.857864376269051 8.2842712474619L 5.1471862576142975 8.2842712474619L 4.644660940672624 7.781745930520227" fill="none" stroke="black" /><path d="M 4.644660940672624 7.071067811865475L 3.6396103067892778 7.071067811865475L 4.142135623730951 7.573593128807148L 4.644660940672624 7.071067811865475" fill="none" stroke="black" /><path d="M 4.644660940672624 7.071067811865475L 5.3553390593273775 7.781745930520227L 4.644660940672624 7.781745930520227L 4.644660940672624 7.071067811865475" fill="none" stroke="black" /><path d="M 4.142135623730951 8.2842712474619L 5.1471862576142975 8.2842712474619L 4.644660940672624 7.781745930520227L 4.142135623730951 8.2842712474619" fill="none" stroke="black" /><path d="M 4.142135623730951 8.2842712474619L 3.4314575050761986 7.573593128807148L 4.142135623730951 7.573593128807148L 4.142135623730951 8.2842712474619" fill="none" stroke="black" /><path d="M 7.0710678118654755 7.071067811865475L 7.0710678118654755 7.781745930520227L 6.568542494923802 8.2842712474619L 6.568542494923802 7.573593128807148L 7.0710678118654755 7.071067811865475" fill="none" stroke="black" /><path d="M 7.071067811865475 8.786796564403573L 6.360389693210723 8.786796564403573L 5.857864376269051 8.2842712474619L 6.568542494923802 8.2842712474619L 7.071067811865475 8.786796564403573" fill="none" stroke="black" /><path d="M 6.360389693210723 8.786796564403573L 6.360389693210723 9.497474683058327L 5.857864376269051 10.0L 5.857864376269051 9.289321881345247L 6.360389693210723 8.786796564403573" fill="none" stroke="black" /><path d="M 7.071067811865475 8.786796564403573L 7.0710678118654755 7.781745930520227L 6.568542494923802 8.2842712474619L 7.071067811865475 8.786796564403573" fill="none" stroke="black" /><path d="M 7.071067811865475 8.786796564403573L 6.360389693210723 9.497474683058327L 6.360389693210723 8.786796564403573L 7.071067811865475 8.786796564403573" fill="none" stroke="black" /><path d="M 5.857864376269051 8.2842712474619L 5.857864376269051 9.289321881345247L 6.360389693210723 8.786796564403573L 5.857864376269051 8.2842712474619" fill="none" stroke="black" /><path d="M 5.857864376269051 8.2842712474619L 6.568542494923802 7.573593128807148L 6.568542494923802 8.2842712474619L 5.857864376269051 8.2842712474619" fill="none" stroke="black" /><path d="M 7.071067811865475 8.786796564403573L 7.781745930520227 8.786796564403573L 8.284271247461902 9.289321881345247L 7.573593128807149 9.289321881345247L 7.071067811865475 8.786796564403573" fill="none" stroke="black" /><path d="M 8.786796564403575 8.786796564403573L 8.786796564403575 9.497474683058327L 8.284271247461902 10.0L 8.284271247461902 9.289321881345247L 8.786796564403575 8.786796564403573" fill="none" stroke="black" /><path d="M 8.786796564403575 9.497474683058327L 9.497474683058327 9.497474683058327L 10 10L 9.289321881345248 10.0L 8.786796564403575 9.497474683058327" fill="none" stroke="black" /><path d="M 8.786796564403575 8.786796564403573L 7.781745930520227 8.786796564403573L 8.284271247461902 9.289321881345247L 8.786796564403575 8.786796564403573" fill="none" stroke="black" /><path d="M 8.786796564403575 8.786796564403573L 9.497474683058327 9.497474683058327L 8.786796564403575 9.497474683058327L 8.786796564403575 8.786796564403573" fill="none" stroke="black" /><path d="M 8.284271247461902 10.0L 9.289321881345248 10.0L 8.786796564403575 9.497474683058327L 8.284271247461902 10.0" fill="none" stroke="black" /><path d="M 8.284271247461902 10.0L 7.573593128807149 9.289321881345247L 8.284271247461902 9.289321881345247L 8.284271247461902 10.0" fill="none" stroke="black" /><path d="M 7.0710678118654755 7.071067811865475L 6.360389693210723 7.071067811865475L 5.85786437626905 7.573593128807148L 6.568542494923802 7.573593128807148L 7.0710678118654755 7.071067811865475" fill="none" stroke="black" /><path d="M 5.355339059327377 7.071067811865475L 5.3553390593273775 7.781745930520227L 5.857864376269051 8.2842712474619L 5.85786437626905 7.573593128807148L 5.355339059327377 7.071067811865475" fill="none" stroke="black" /><path d="M 5.355339059327377 7.071067811865475L 6.360389693210723 7.071067811865475L 5.85786437626905 7.573593128807148L 5.355339059327377 7.071067811865475" fill="none" stroke="black" /><path d="M 4.644660940672624 7.071067811865475L 5.3553390593273775 7.781745930520227L 5.355339059327377 7.071067811865475L 4.644660940672624 7.071067811865475" fill="none" stroke="black" /><path d="M 5.857864376269051 8.2842712474619L 6.568542494923802 7.573593128807148L 5.85786437626905 7.573593128807148L 5.857864376269051 8.2842712474619" fill="none" stroke="black" /><path d="M 7.0710678118654755 7.071067811865475L 7.573593128807149 7.573593128807148L 7.573593128807149 8.2842712474619L 7.0710678118654755 7.781745930520227L 7.0710678118654755 7.071067811865475" fill="none" stroke="black" /><path d="M 8.284271247461902 8.2842712474619L 7.781745930520227 8.786796564403573L 7.071067811865475 8.786796564403573L 7.573593128807149 8.2842712474619L 8.284271247461902 8.2842712474619" fill="none" stroke="black" /><path d="M 8.284271247461902 8.2842712474619L 7.573593128807149 7.573593128807148L 7.573593128807149 8.2842712474619L 8.284271247461902 8.2842712474619" fill="none" stroke="black" /><path d="M 8.786796564403575 8.786796564403573L 7.781745930520227 8.786796564403573L 8.284271247461902 8.2842712474619L 8.786796564403575 8.786796564403573" fill="none" stroke="black" /><path d="M 7.071067811865475 8.786796564403573L 7.0710678118654755 7.781745930520227L 7.573593128807149 8.2842712474619L 7.071067811865475 8.786796564403573" fill="none" stroke="black" /><path d="M 5.857864376269051 10.0L 6.568542494923804 10.0L 7.0710678118654755 9.497474683058327L 6.360389693210723 9.497474683058327L 5.857864376269051 10.0" fill="none" stroke="black" /><path d="M 7.573593128807149 10.0L 7.573593128807148 9.289321881345247L 7.071067811865475 8.786796564403573L 7.0710678118654755 9.497474683058327L 7.573593128807149 10.0" fill="none" stroke="black" /><path d="M 7.573593128807149 10.0L 6.568542494923804 10.0L 7.0710678118654755 9.497474683058327L 7.573593128807149 10.0" fill="none" stroke="black" /><path d="M 8.284271247461902 10.0L 7.573593128807148 9.289321881345247L 7.573593128807149 10.0L 8.284271247461902 10.0" fill="none" stroke="black" /><path d="M 7.071067811865475 8.786796564403573L 6.360389693210723 9.497474683058327L 7.0710678118654755 9.497474683058327L 7.071067811865475 8.786796564403573" fill="none" stroke="black" /><path d="M 5.857864376269051 10.0L 5.3553390593273775 9.497474683058327L 5.3553390593273775 8.786796564403573L 5.857864376269051 9.289321881345247L 5.857864376269051 10.0" fill="none" stroke="black" /><path d="M 4.644660940672624 8.786796564403573L 5.1471862576142975 8.2842712474619L 5.857864376269051 8.2842712474619L 5.3553390593273775 8.786796564403573L 4.644660940672624 8.786796564403573" fill="none" stroke="black" /><path d="M 4.644660940672624 8.786796564403573L 5.3553390593273775 9.497474683058327L 5.3553390593273775 8.786796564403573L 4.644660940672624 8.786796564403573" fill="none" stroke="black" /><path d="M 4.142135623730951 8.2842712474619L 5.1471862576142975 8.2842712474619L 4.644660940672624 8.786796564403573L 4.142135623730951 8.2842712474619" fill="none" stroke="black" /><path d="M 5.857864376269051 8.2842712474619L 5.857864376269051 9.289321881345247L 5.3553390593273775 8.786796564403573L 5.857864376269051 8.2842712474619" fill="none" stroke="black" /><path d="M 10 0L 10.0 0.7106781186547527L 9.497474683058327 1.213203435596426L 9.497474683058327 0.5025253169416735L 10 0" fill="none" stroke="black" /><path d="M 10.0 1.7157287525380993L 9.289321881345247 1.715728752538099L 8.786796564403573 1.2132034355964258L 9.497474683058327 1.213203435596426L 10.0 1.7157287525380993" fill="none" stroke="black" /><path d="M 9.289321881345247 1.715728752538099L 9.289321881345247 2.426406871192852L 8.786796564403573 2.9289321881345254L 8.786796564403573 2.218254069479773L 9.289321881345247 1.715728752538099" fill="none" stroke="black" /><path d="M 10.0 1.7157287525380993L 10.0 0.7106781186547527L 9.497474683058327 1.213203435596426L 10.0 1.7157287525380993" fill="none" stroke="black" /><path d="M 10.0 1.7157287525380993L 9.289321881345247 2.426406871192852L 9.289321881345247 1.715728752538099L 10.0 1.7157287525380993" fill="none" stroke="black" /><path d="M 8.786796564403573 1.2132034355964258L 8.786796564403573 2.218254069479773L 9.289321881345247 1.715728752538099L 8.786796564403573 1.2132034355964258" fill="none" stroke="black" /><path d="M 8.786796564403573 1.2132034355964258L 9.497474683058327 0.5025253169416735L 9.497474683058327 1.213203435596426L 8.786796564403573 1.2132034355964258" fill="none" stroke="black" /><path d="M 10.0 4.142135623730951L 9.289321881345248 4.14213562373095L 8.786796564403575 3.639610306789277L 9.497474683058327 3.6396103067892778L 10.0 4.142135623730951" fill="none" stroke="black" /><path d="M 8.284271247461902 4.14213562373095L 8.284271247461902 3.431457505076198L 8.786796564403573 2.9289321881345254L 8.786796564403575 3.639610306789277L 8.284271247461902 4.14213562373095" fill="none" stroke="black" /><path d="M 8.284271247461902 3.431457505076198L 7.573593128807148 3.4314575050761977L 7.071067811865475 2.928932188134525L 7.781745930520227 2.928932188134525L 8.284271247461902 3.431457505076198" fill="none" stroke="black" /><path d="M 8.284271247461902 4.14213562373095L 9.289321881345248 4.14213562373095L 8.786796564403575 3.639610306789277L 8.284271247461902 4.14213562373095" fill="none" stroke="black" /><path d="M 8.284271247461902 4.14213562373095L 7.573593128807148 3.4314575050761977L 8.284271247461902 3.431457505076198L 8.284271247461902 4.14213562373095" fill="none" stroke="black" /><path d="M 8.786796564403573 2.9289321881345254L 7.781745930520227 2.928932188134525L 8.284271247461902 3.431457505076198L 8.786796564403573 2.9289321881345254" fill="none" stroke="black" /><path d="M 8.786796564403573 2.9289321881345254L 9.497474683058327 3.6396103067892778L 8.786796564403575 3.639610306789277L 8.786796564403573 2.9289321881345254" fill="none" stroke="black" /><path d="M 8.284271247461902 4.14213562373095L 8.284271247461902 4.8528137423857025L 7.781745930520229 5.355339059327377L 7.781745930520229 4.644660940672623L 8.284271247461902 4.14213562373095" fill="none" stroke="black" /><path d="M 8.2842712474619 5.85786437626905L 7.573593128807149 5.85786437626905L 7.0710678118654755 5.355339059327377L 7.781745930520229 5.355339059327377L 8.2842712474619 5.85786437626905" fill="none" stroke="black" /><path d="M 7.573593128807149 5.85786437626905L 7.573593128807149 6.568542494923801L 7.0710678118654755 7.071067811865475L 7.0710678118654755 6.360389693210723L 7.573593128807149 5.85786437626905" fill="none" stroke="black" /><path d="M 8.2842712474619 5.85786437626905L 8.284271247461902 4.8528137423857025L 7.781745930520229 5.355339059327377L 8.2842712474619 5.85786437626905" fill="none" stroke="black" /><path d="M 8.2842712474619 5.85786437626905L 7.573593128807149 6.568542494923801L 7.573593128807149 5.85786437626905L 8.2842712474619 5.85786437626905" fill="none" stroke="black" /><path d="M 7.0710678118654755 5.355339059327377L 7.0710678118654755 6.360389693210723L 7.573593128807149 5.85786437626905L 7.0710678118654755 5.355339059327377" fill="none" stroke="black" /><path d="M 7.0710678118654755 5.355339059327377L 7.781745930520229 4.644660940672623L 7.781745930520229 5.355339059327377L 7.0710678118654755 5.355339059327377" fill="none" stroke="black" /><path d="M 10.0 4.142135623730951L 10.0 3.4314575050761986L 9.497474683058327 2.9289321881345254L 9.497474683058327 3.6396103067892778L 10.0 4.142135623730951" fill="none" stroke="black" /><path d="M 10.0 2.4264068711928517L 9.289321881345247 2.426406871192852L 8.786796564403573 2.9289321881345254L 9.497474683058327 2.9289321881345254L 10.0 2.4264068711928517" fill="none" stroke="black" /><path d="M 10.0 2.4264068711928517L 10.0 3.4314575050761986L 9.497474683058327 2.9289321881345254L 10.0 2.4264068711928517" fill="none" stroke="black" /><path d="M 10.0 1.7157287525380993L 9.289321881345247 2.426406871192852L 10.0 2.4264068711928517L 10.0 1.7157287525380993" fill="none" stroke="black" /><path d="M 8.786796564403573 2.9289321881345254L 9.497474683058327 3.6396103067892778L 9.497474683058327 2.9289321881345254L 8.786796564403573 2.9289321881345254" fill="none" stroke="black" /><path d="M 10.0 4.142135623730951L 9.497474683058327 4.644660940672624L 8.786796564403575 4.644660940672623L 9.289321881345248 4.14213562373095L 10.0 4.142135623730951" fill="none" stroke="black" /><path d="M 8.786796564403573 5.355339059327377L 8.284271247461902 4.8528137423857025L 8.284271247461902 4.14213562373095L 8.786796564403575 4.644660940672623L 8.786796564403573 5.355339059327377" fill="none" stroke="black" /><path d="M 8.786796564403573 5.355339059327377L 9.497474683058327 4.644660940672624L 8.786796564403575 4.644660940672623L 8.786796564403573 5.355339059327377" fill="none" stroke="black" /><path d="M 8.2842712474619 5.85786437626905L 8.284271247461902 4.8528137423857025L 8.786796564403573 5.355339059327377L 8.2842712474619 5.85786437626905" fill="none" stroke="black" /><path d="M 8.284271247461902 4.14213562373095L 9.289321881345248 4.14213562373095L 8.786796564403575 4.644660940672623L 8.284271247461902 4.14213562373095" fill="none" stroke="black" /><path d="M 7.071067811865475 2.928932188134525L 7.071067811865475 3.639610306789277L 7.573593128807149 4.14213562373095L 7.573593128807149 3.431457505076198L 7.071067811865475 2.928932188134525" fill="none" stroke="black" /><path d="M 7.0710678118654755 4.644660940672623L 7.781745930520229 4.644660940672623L 8.284271247461902 4.14213562373095L 7.573593128807149 4.14213562373095L 7.0710678118654755 4.644660940672623" fill="none" stroke="black" /><path d="M 7.0710678118654755 4.644660940672623L 7.071067811865475 3.639610306789277L 7.573593128807149 4.14213562373095L 7.0710678118654755 4.644660940672623" fill="none" stroke="black" /><path d="M 7.0710678118654755 5.355339059327377L 7.781745930520229 4.644660940672623L 7.0710678118654755 4.644660940672623L 7.0710678118654755 5.355339059327377" fill="none" stroke="black" /><path d="M 8.284271247461902 4.14213562373095L 7.573593128807149 3.431457505076198L 7.573593128807149 4.14213562373095L 8.284271247461902 4.14213562373095" fill="none" stroke="black" /><path d="M 7.071067811865475 2.928932188134525L 7.573593128807148 2.4264068711928517L 8.2842712474619 2.4264068711928517L 7.781745930520227 2.928932188134525L 7.071067811865475 2.928932188134525" fill="none" stroke="black" /><path d="M 8.2842712474619 1.7157287525380993L 8.786796564403573 2.218254069479773L 8.786796564403573 2.9289321881345254L 8.2842712474619 2.4264068711928517L 8.2842712474619 1.7157287525380993" fill="none" stroke="black" /><path d="M 8.2842712474619 1.7157287525380993L 7.573593128807148 2.4264068711928517L 8.2842712474619 2.4264068711928517L 8.2842712474619 1.7157287525380993" fill="none" stroke="black" /><path d="M 8.786796564403573 1.2132034355964258L 8.786796564403573 2.218254069479773L 8.2842712474619 1.7157287525380993L 8.786796564403573 1.2132034355964258" fill="none" stroke="black" /><path d="M 8.786796564403573 2.9289321881345254L 7.781745930520227 2.928932188134525L 8.2842712474619 2.4264068711928517L 8.786796564403573 2.9289321881345254" fill="none" stroke="black" /><path d="M 2.928932188134525 2.928932188134525L 3.4314575050761986 2.4264068711928513L 4.142135623730951 2.4264068711928513L 3.639610306789277 2.928932188134525L 2.928932188134525 2.928932188134525" fill="none" stroke="black" /><path d="M 4.142135623730951 1.7157287525380989L 4.644660940672623 2.218254069479772L 4.644660940672623 2.928932188134525L 4.142135623730951 2.4264068711928513L 4.142135623730951 1.7157287525380989" fill="none" stroke="black" /><path d="M 4.644660940672623 2.218254069479772L 5.1471862576142975 1.7157287525380989L 5.857864376269051 1.7157287525380989L 5.3553390593273775 2.218254069479772L 4.644660940672623 2.218254069479772" fill="none" stroke="black" /><path d="M 4.142135623730951 1.7157287525380989L 3.4314575050761986 2.4264068711928513L 4.142135623730951 2.4264068711928513L 4.142135623730951 1.7157287525380989" fill="none" stroke="black" /><path d="M 4.142135623730951 1.7157287525380989L 5.1471862576142975 1.7157287525380989L 4.644660940672623 2.218254069479772L 4.142135623730951 1.7157287525380989" fill="none" stroke="black" /><path d="M 4.644660940672623 2.928932188134525L 5.3553390593273775 2.218254069479772L 4.644660940672623 2.218254069479772L 4.644660940672623 2.928932188134525" fill="none" stroke="black" /><path d="M 4.644660940672623 2.928932188134525L 3.639610306789277 2.928932188134525L 4.142135623730951 2.4264068711928513L 4.644660940672623 2.928932188134525" fill="none" stroke="black" /><path d="M 5.857864376269051 0.0L 6.360389693210723 0.5025253169416735L 6.360389693210723 1.2132034355964258L 5.857864376269051 0.7106781186547524L 5.857864376269051 0.0" fill="none" stroke="black" /><path d="M 7.071067811865475 1.2132034355964258L 6.568542494923802 1.7157287525380989L 5.857864376269051 1.7157287525380989L 6.360389693210723 1.2132034355964258L 7.071067811865475 1.2132034355964258" fill="none" stroke="black" /><path d="M 6.568542494923802 1.7157287525380989L 7.071067811865475 2.2182540694797726L 7.071067811865475 2.928932188134525L 6.568542494923802 2.4264068711928517L 6.568542494923802 1.7157287525380989" fill="none" stroke="black" /><path d="M 7.071067811865475 1.2132034355964258L 6.360389693210723 0.5025253169416735L 6.360389693210723 1.2132034355964258L 7.071067811865475 1.2132034355964258" fill="none" stroke="black" /><path d="M 7.071067811865475 1.2132034355964258L 7.071067811865475 2.2182540694797726L 6.568542494923802 1.7157287525380989L 7.071067811865475 1.2132034355964258" fill="none" stroke="black" /><path d="M 5.857864376269051 1.7157287525380989L 6.568542494923802 2.4264068711928517L 6.568542494923802 1.7157287525380989L 5.857864376269051 1.7157287525380989" fill="none" stroke="black" /><path d="M 5.857864376269051 1.7157287525380989L 5.857864376269051 0.7106781186547524L 6.360389693210723 1.2132034355964258L 5.857864376269051 1.7157287525380989" fill="none" stroke="black" /><path d="M 7.071067811865475 1.2132034355964258L 7.573593128807149 0.7106781186547526L 8.284271247461902 0.7106781186547524L 7.781745930520227 1.2132034355964258L 7.071067811865475 1.2132034355964258" fill="none" stroke="black" /><path d="M 8.284271247461902 0.0L 8.786796564403575 0.5025253169416732L 8.786796564403573 1.2132034355964256L 8.284271247461902 0.7106781186547524L 8.284271247461902 0.0" fill="none" stroke="black" /><path d="M 8.786796564403575 0.5025253169416732L 9.289321881345248 0.0L 10 0L 9.497474683058327 0.5025253169416731L 8.786796564403575 0.5025253169416732" fill="none" stroke="black" /><path d="M 8.284271247461902 0.0L 7.573593128807149 0.7106781186547526L 8.284271247461902 0.7106781186547524L 8.284271247461902 0.0" fill="none" stroke="black" /><path d="M 8.284271247461902 0.0L 9.289321881345248 0.0L 8.786796564403575 0.5025253169416732L 8.284271247461902 0.0" fill="none" stroke="black" /><path d="M 8.786796564403573 1.2132034355964256L 9.497474683058327 0.5025253169416731L 8.786796564403575 0.5025253169416732L 8.786796564403573 1.2132034355964256" fill="none" stroke="black" /><path d="M 8.786796564403573 1.2132034355964256L 7.781745930520227 1.2132034355964258L 8.284271247461902 0.7106781186547524L 8.786796564403573 1.2132034355964256" fill="none" stroke="black" /><path d="M 5.857864376269051 0.0L 5.3553390593273775 0.5025253169416732L 5.3553390593273775 1.2132034355964256L 5.857864376269051 0.7106781186547524L 5.857864376269051 0.0" fill="none" stroke="black" /><path d="M 4.644660940672624 1.2132034355964256L 5.1471862576142975 1.7157287525380989L 5.857864376269051 1.7157287525380989L 5.3553390593273775 1.2132034355964256L 4.644660940672624 1.2132034355964256" fill="none" stroke="black" /><path d="M 4.644660940672624 1.2132034355964256L 5.3553390593273775 0.5025253169416732L 5.3553390593273775 1.2132034355964256L 4.644660940672624 1.2132034355964256" fill="none" stroke="black" /><path d="M 4.142135623730951 1.7157287525380989L 5.1471862576142975 1.7157287525380989L 4.644660940672624 1.2132034355964256L 4.142135623730951 1.7157287525380989" fill="none" stroke="black" /><path d="M 5.857864376269051 1.7157287525380989L 5.857864376269051 0.7106781186547524L 5.3553390593273775 1.2132034355964256L 5.857864376269051 1.7157287525380989" fill="none" stroke="black" /><path d="M 5.857864376269051 0.0L 6.568542494923804 0.0L 7.0710678118654755 0.5025253169416735L 6.360389693210723 0.5025253169416735L 5.857864376269051 0.0" fill="none" stroke="black" /><path d="M 7.573593128807149 0.0L 7.573593128807148 0.7106781186547527L 7.071067811865475 1.2132034355964258L 7.0710678118654755 0.5025253169416735L 7.573593128807149 0.0" fill="none" stroke="black" /><path d="M 7.573593128807149 0.0L 6.568542494923804 0.0L 7.0710678118654755 0.5025253169416735L 7.573593128807149 0.0" fill="none" stroke="black" /><path d="M 8.284271247461902 0.0L 7.573593128807148 0.7106781186547527L 7.573593128807149 0.0L 8.284271247461902 0.0" fill="none" stroke="black" /><path d="M 7.071067811865475 1.2132034355964258L 6.360389693210723 0.5025253169416735L 7.0710678118654755 0.5025253169416735L 7.071067811865475 1.2132034355964258" fill="none" stroke="black" /><path d="M 7.071067811865475 2.928932188134525L 7.573593128807148 2.4264068711928513L 7.573593128807148 1.7157287525380989L 7.071067811865475 2.2182540694797726L 7.071067811865475 2.928932188134525" fill="none" stroke="black" /><path d="M 8.2842712474619 1.715728752538099L 7.781745930520227 1.2132034355964258L 7.071067811865475 1.2132034355964258L 7.573593128807148 1.7157287525380989L 8.2842712474619 1.715728752538099" fill="none" stroke="black" /><path d="M 8.2842712474619 1.715728752538099L 7.573593128807148 2.4264068711928513L 7.573593128807148 1.7157287525380989L 8.2842712474619 1.715728752538099" fill="none" stroke="black" /><path d="M 8.786796564403573 1.2132034355964256L 7.781745930520227 1.2132034355964258L 8.2842712474619 1.715728752538099L 8.786796564403573 1.2132034355964256" fill="none" stroke="black" /><path d="M 7.071067811865475 1.2132034355964258L 7.071067811865475 2.2182540694797726L 7.573593128807148 1.7157287525380989L 7.071067811865475 1.2132034355964258" fill="none" stroke="black" /><path d="M 7.071067811865475 2.928932188134525L 6.360389693210722 2.928932188134525L 5.85786437626905 2.4264068711928513L 6.568542494923802 2.4264068711928513L 7.071067811865475 2.928932188134525" fill="none" stroke="black" /><path d="M 5.355339059327377 2.928932188134525L 5.3553390593273775 2.218254069479772L 5.857864376269051 1.7157287525380989L 5.85786437626905 2.4264068711928513L 5.355339059327377 2.928932188134525" fill="none" stroke="black" /><path d="M 5.355339059327377 2.928932188134525L 6.360389693210722 2.928932188134525L 5.85786437626905 2.4264068711928513L 5.355339059327377 2.928932188134525" fill="none" stroke="black" /><path d="M 4.644660940672623 2.928932188134525L 5.3553390593273775 2.218254069479772L 5.355339059327377 2.928932188134525L 4.644660940672623 2.928932188134525" fill="none" stroke="black" /><path d="M 5.857864376269051 1.7157287525380989L 6.568542494923802 2.4264068711928513L 5.85786437626905 2.4264068711928513L 5.857864376269051 1.7157287525380989" fill="none" stroke="black" /><path d="M 7.0710678118654755 7.071067811865475L 6.568542494923802 6.568542494923801L 6.568542494923802 5.857864376269049L 7.0710678118654755 6.360389693210722L 7.0710678118654755 7.071067811865475" fill="none" stroke="black" /><path d="M 5.85786437626905 5.857864376269049L 6.360389693210723 5.355339059327376L 7.0710678118654755 5.355339059327376L 6.568542494923802 5.857864376269049L 5.85786437626905 5.857864376269049" fill="none" stroke="black" /><path d="M 6.360389693210723 5.355339059327376L 5.857864376269049 4.8528137423857025L 5.857864376269049 4.14213562373095L 6.360389693210722 4.644660940672623L 6.360389693210723 5.355339059327376" fill="none" stroke="black" /><path d="M 5.85786437626905 5.857864376269049L 6.568542494923802 6.568542494923801L 6.568542494923802 5.857864376269049L 5.85786437626905 5.857864376269049" fill="none" stroke="black" /><path d="M 5.85786437626905 5.857864376269049L 5.857864376269049 4.8528137423857025L 6.360389693210723 5.355339059327376L 5.85786437626905 5.857864376269049" fill="none" stroke="black" /><path d="M 7.0710678118654755 5.355339059327376L 6.360389693210722 4.644660940672623L 6.360389693210723 5.355339059327376L 7.0710678118654755 5.355339059327376" fill="none" stroke="black" /><path d="M 7.0710678118654755 5.355339059327376L 7.0710678118654755 6.360389693210722L 6.568542494923802 5.857864376269049L 7.0710678118654755 5.355339059327376" fill="none" stroke="black" /><path d="M 5.857864376269049 4.14213562373095L 5.147186257614296 4.14213562373095L 4.6446609406726225 3.639610306789277L 5.355339059327376 3.639610306789277L 5.857864376269049 4.14213562373095" fill="none" stroke="black" /><path d="M 4.142135623730949 4.14213562373095L 4.14213562373095 3.431457505076198L 4.644660940672623 2.928932188134525L 4.6446609406726225 3.639610306789277L 4.142135623730949 4.14213562373095" fill="none" stroke="black" /><path d="M 4.14213562373095 3.431457505076198L 3.4314575050761977 3.431457505076198L 2.928932188134525 2.928932188134525L 3.6396103067892764 2.928932188134525L 4.14213562373095 3.431457505076198" fill="none" stroke="black" /><path d="M 4.142135623730949 4.14213562373095L 5.147186257614296 4.14213562373095L 4.6446609406726225 3.639610306789277L 4.142135623730949 4.14213562373095" fill="none" stroke="black" /><path d="M 4.142135623730949 4.14213562373095L 3.4314575050761977 3.431457505076198L 4.14213562373095 3.431457505076198L 4.142135623730949 4.14213562373095" fill="none" stroke="black" /><path d="M 4.644660940672623 2.928932188134525L 3.6396103067892764 2.928932188134525L 4.14213562373095 3.431457505076198L 4.644660940672623 2.928932188134525" fill="none" stroke="black" /><path d="M 4.644660940672623 2.928932188134525L 5.355339059327376 3.639610306789277L 4.6446609406726225 3.639610306789277L 4.644660940672623 2.928932188134525" fill="none" stroke="black" /><path d="M 2.928932188134525 7.071067811865475L 2.928932188134525 6.360389693210722L 3.431457505076198 5.857864376269049L 3.431457505076198 6.568542494923801L 2.928932188134525 7.071067811865475" fill="none" stroke="black" /><path d="M 2.928932188134525 5.355339059327376L 3.639610306789277 5.355339059327376L 4.14213562373095 5.857864376269049L 3.431457505076198 5.857864376269049L 2.928932188134525 5.355339059327376" fill="none" stroke="black" /><path d="M 3.639610306789277 5.355339059327376L 3.6396103067892764 4.644660940672623L 4.142135623730949 4.14213562373095L 4.14213562373095 4.8528137423857025L 3.639610306789277 5.355339059327376" fill="none" stroke="black" /><path d="M 2.928932188134525 5.355339059327376L 2.928932188134525 6.360389693210722L 3.431457505076198 5.857864376269049L 2.928932188134525 5.355339059327376" fill="none" stroke="black" /><path d="M 2.928932188134525 5.355339059327376L 3.6396103067892764 4.644660940672623L 3.639610306789277 5.355339059327376L 2.928932188134525 5.355339059327376" fill="none" stroke="black" /><path d="M 4.14213562373095 5.857864376269049L 4.14213562373095 4.8528137423857025L 3.639610306789277 5.355339059327376L 4.14213562373095 5.857864376269049" fill="none" stroke="black" /><path d="M 4.14213562373095 5.857864376269049L 3.431457505076198 6.568542494923801L 3.431457505076198 5.857864376269049L 4.14213562373095 5.857864376269049" fill="none" stroke="black" /><path d="M 5.85786437626905 5.857864376269049L 5.355339059327377 6.360389693210722L 4.644660940672623 6.360389693210722L 5.147186257614297 5.857864376269049L 5.85786437626905 5.857864376269049" fill="none" stroke="black" /><path d="M 4.644660940672623 7.071067811865475L 4.14213562373095 6.568542494923801L 4.14213562373095 5.857864376269049L 4.644660940672623 6.360389693210722L 4.644660940672623 7.071067811865475" fill="none" stroke="black" /><path d="M 4.14213562373095 6.568542494923801L 3.639610306789277 7.071067811865475L 2.928932188134525 7.071067811865475L 3.431457505076198 6.568542494923801L 4.14213562373095 6.568542494923801" fill="none" stroke="black" /><path d="M 4.644660940672623 7.071067811865475L 5.355339059327377 6.360389693210722L 4.644660940672623 6.360389693210722L 4.644660940672623 7.071067811865475" fill="none" stroke="black" /><path d="M 4.644660940672623 7.071067811865475L 3.639610306789277 7.071067811865475L 4.14213562373095 6.568542494923801L 4.644660940672623 7.071067811865475" fill="none" stroke="black" /><path d="M 4.14213562373095 5.857864376269049L 3.431457505076198 6.568542494923801L 4.14213562373095 6.568542494923801L 4.14213562373095 5.857864376269049" fill="none" stroke="black" /><path d="M 4.14213562373095 5.857864376269049L 5.147186257614297 5.857864376269049L 4.644660940672623 6.360389693210722L 4.14213562373095 5.857864376269049" fill="none" stroke="black" /><path d="M 4.142135623730949 4.14213562373095L 4.644660940672623 4.644660940672623L 4.644660940672623 5.355339059327376L 4.14213562373095 4.8528137423857025L 4.142135623730949 4.14213562373095" fill="none" stroke="black" /><path d="M 4.644660940672623 5.355339059327376L 5.355339059327377 5.355339059327376L 5.85786437626905 5.857864376269049L 5.1471862576142975 5.857864376269049L 4.644660940672623 5.355339059327376" fill="none" stroke="black" /><path d="M 5.857864376269049 4.14213562373095L 5.857864376269049 4.8528137423857025L 5.355339059327377 5.355339059327376L 5.355339059327376 4.644660940672623L 5.857864376269049 4.14213562373095" fill="none" stroke="black" /><path d="M 4.644660940672623 4.644660940672623L 5.147186257614296 4.14213562373095L 5.857864376269049 4.14213562373095L 5.355339059327376 4.644660940672623L 4.644660940672623 4.644660940672623" fill="none" stroke="black" /><path d="M 5.355339059327377 5.355339059327376L 4.644660940672623 5.355339059327376L 4.644660940672623 4.644660940672623L 5.355339059327376 4.644660940672623L 5.355339059327377 5.355339059327376" fill="none" stroke="black" /><path d="M 4.142135623730949 4.14213562373095L 5.147186257614296 4.14213562373095L 4.644660940672623 4.644660940672623L 4.142135623730949 4.14213562373095" fill="none" stroke="black" /><path d="M 4.14213562373095 5.857864376269049L 4.14213562373095 4.8528137423857025L 4.644660940672623 5.355339059327376L 4.14213562373095 5.857864376269049" fill="none" stroke="black" /><path d="M 4.14213562373095 5.857864376269049L 5.1471862576142975 5.857864376269049L 4.644660940672623 5.355339059327376L 4.14213562373095 5.857864376269049" fill="none" stroke="black" /><path d="M 5.85786437626905 5.857864376269049L 5.857864376269049 4.8528137423857025L 5.355339059327377 5.355339059327376L 5.85786437626905 5.857864376269049" fill="none" stroke="black" /><path d="M 7.0710678118654755 7.071067811865475L 6.360389693210723 7.071067811865475L 5.85786437626905 6.568542494923801L 6.568542494923802 6.568542494923801L 7.0710678118654755 7.071067811865475" fill="none" stroke="black" /><path d="M 5.355339059327377 7.071067811865475L 5.355339059327377 6.360389693210722L 5.85786437626905 5.857864376269049L 5.85786437626905 6.568542494923801L 5.355339059327377 7.071067811865475" fill="none" stroke="black" /><path d="M 5.355339059327377 7.071067811865475L 6.360389693210723 7.071067811865475L 5.85786437626905 6.568542494923801L 5.355339059327377 7.071067811865475" fill="none" stroke="black" /><path d="M 4.644660940672623 7.071067811865475L 5.355339059327377 6.360389693210722L 5.355339059327377 7.071067811865475L 4.644660940672623 7.071067811865475" fill="none" stroke="black" /><path d="M 5.85786437626905 5.857864376269049L 6.568542494923802 6.568542494923801L 5.85786437626905 6.568542494923801L 5.85786437626905 5.857864376269049" fill="none" stroke="black" /><path d="M 7.071067811865475 2.928932188134525L 7.071067811865475 3.639610306789277L 6.568542494923801 4.14213562373095L 6.568542494923801 3.431457505076198L 7.071067811865475 2.928932188134525" fill="none" stroke="black" /><path d="M 7.0710678118654755 4.644660940672623L 6.360389693210722 4.644660940672623L 5.857864376269049 4.14213562373095L 6.568542494923801 4.14213562373095L 7.0710678118654755 4.644660940672623" fill="none" stroke="black" /><path d="M 7.0710678118654755 4.644660940672623L 7.071067811865475 3.639610306789277L 6.568542494923801 4.14213562373095L 7.0710678118654755 4.644660940672623" fill="none" stroke="black" /><path d="M 7.0710678118654755 5.355339059327376L 6.360389693210722 4.644660940672623L 7.0710678118654755 4.644660940672623L 7.0710678118654755 5.355339059327376" fill="none" stroke="black" /><path d="M 5.857864376269049 4.14213562373095L 6.568542494923801 3.431457505076198L 6.568542494923801 4.14213562373095L 5.857864376269049 4.14213562373095" fill="none" stroke="black" /><path d="M 7.071067811865475 2.928932188134525L 6.360389693210722 2.928932188134525L 5.857864376269049 3.431457505076198L 6.568542494923801 3.431457505076198L 7.071067811865475 2.928932188134525" fill="none" stroke="black" /><path d="M 5.355339059327376 2.928932188134525L 5.355339059327376 3.639610306789277L 5.857864376269049 4.14213562373095L 5.857864376269049 3.431457505076198L 5.355339059327376 2.928932188134525" fill="none" stroke="black" /><path d="M 5.355339059327376 2.928932188134525L 6.360389693210722 2.928932188134525L 5.857864376269049 3.431457505076198L 5.355339059327376 2.928932188134525" fill="none" stroke="black" /><path d="M 4.644660940672623 2.928932188134525L 5.355339059327376 3.639610306789277L 5.355339059327376 2.928932188134525L 4.644660940672623 2.928932188134525" fill="none" stroke="black" /><path d="M 5.857864376269049 4.14213562373095L 6.568542494923801 3.431457505076198L 5.857864376269049 3.431457505076198L 5.857864376269049 4.14213562373095" fill="none" stroke="black" /><path d="M 2.928932188134525 2.928932188134525L 2.928932188134525 3.639610306789277L 3.4314575050761977 4.14213562373095L 3.4314575050761977 3.431457505076198L 2.928932188134525 2.928932188134525" fill="none" stroke="black" /><path d="M 2.928932188134525 4.644660940672623L 3.6396103067892764 4.644660940672623L 4.142135623730949 4.14213562373095L 3.4314575050761977 4.14213562373095L 2.928932188134525 4.644660940672623" fill="none" stroke="black" /><path d="M 2.928932188134525 4.644660940672623L 2.928932188134525 3.639610306789277L 3.4314575050761977 4.14213562373095L 2.928932188134525 4.644660940672623" fill="none" stroke="black" /><path d="M 2.928932188134525 5.355339059327376L 3.6396103067892764 4.644660940672623L 2.928932188134525 4.644660940672623L 2.928932188134525 5.355339059327376" fill="none" stroke="black" /><path d="M 4.142135623730949 4.14213562373095L 3.4314575050761977 3.431457505076198L 3.4314575050761977 4.14213562373095L 4.142135623730949 4.14213562373095" fill="none" stroke="black" /><path d="M 0 0L 0.7106781186547527 0.0L 1.213203435596426 0.5025253169416735L 0.5025253169416735 0.5025253169416735L 0 0" fill="none" stroke="black" /><path d="M 1.7157287525380993 0.0L 1.715728752538099 0.7106781186547526L 1.2132034355964258 1.2132034355964258L 1.213203435596426 0.5025253169416735L 1.7157287525380993 0.0" fill="none" stroke="black" /><path d="M 1.715728752538099 0.7106781186547526L 2.426406871192852 0.7106781186547527L 2.9289321881345254 1.2132034355964258L 2.218254069479773 1.2132034355964258L 1.715728752538099 0.7106781186547526" fill="none" stroke="black" /><path d="M 1.7157287525380993 0.0L 0.7106781186547527 0.0L 1.213203435596426 0.5025253169416735L 1.7157287525380993 0.0" fill="none" stroke="black" /><path d="M 1.7157287525380993 0.0L 2.426406871192852 0.7106781186547527L 1.715728752538099 0.7106781186547526L 1.7157287525380993 0.0" fill="none" stroke="black" /><path d="M 1.2132034355964258 1.2132034355964258L 2.218254069479773 1.2132034355964258L 1.715728752538099 0.7106781186547526L 1.2132034355964258 1.2132034355964258" fill="none" stroke="black" /><path d="M 1.2132034355964258 1.2132034355964258L 0.5025253169416735 0.5025253169416735L 1.213203435596426 0.5025253169416735L 1.2132034355964258 1.2132034355964258" fill="none" stroke="black" /><path d="M 4.142135623730951 0.0L 4.142135623730951 0.7106781186547527L 3.6396103067892778 1.213203435596426L 3.6396103067892778 0.5025253169416735L 4.142135623730951 0.0" fill="none" stroke="black" /><path d="M 4.14213562373095 1.7157287525380993L 3.431457505076198 1.7157287525380993L 2.9289321881345254 1.2132034355964258L 3.6396103067892778 1.213203435596426L 4.14213562373095 1.7157287525380993" fill="none" stroke="black" /><path d="M 3.431457505076198 1.7157287525380993L 3.431457505076198 2.4264068711928517L 2.928932188134525 2.928932188134525L 2.928932188134525 2.2182540694797726L 3.431457505076198 1.7157287525380993" fill="none" stroke="black" /><path d="M 4.14213562373095 1.7157287525380993L 4.142135623730951 0.7106781186547527L 3.6396103067892778 1.213203435596426L 4.14213562373095 1.7157287525380993" fill="none" stroke="black" /><path d="M 4.14213562373095 1.7157287525380993L 3.431457505076198 2.4264068711928517L 3.431457505076198 1.7157287525380993L 4.14213562373095 1.7157287525380993" fill="none" stroke="black" /><path d="M 2.9289321881345254 1.2132034355964258L 2.928932188134525 2.2182540694797726L 3.431457505076198 1.7157287525380993L 2.9289321881345254 1.2132034355964258" fill="none" stroke="black" /><path d="M 2.9289321881345254 1.2132034355964258L 3.6396103067892778 0.5025253169416735L 3.6396103067892778 1.213203435596426L 2.9289321881345254 1.2132034355964258" fill="none" stroke="black" /><path d="M 4.142135623730951 0.0L 3.4314575050761986 0.0L 2.9289321881345254 0.5025253169416735L 3.6396103067892778 0.5025253169416735L 4.142135623730951 0.0" fill="none" stroke="black" /><path d="M 2.4264068711928517 0.0L 2.426406871192852 0.7106781186547527L 2.9289321881345254 1.2132034355964258L 2.9289321881345254 0.5025253169416735L 2.4264068711928517 0.0" fill="none" stroke="black" /><path d="M 2.4264068711928517 0.0L 3.4314575050761986 0.0L 2.9289321881345254 0.5025253169416735L 2.4264068711928517 0.0" fill="none" stroke="black" /><path d="M 1.7157287525380993 0.0L 2.426406871192852 0.7106781186547527L 2.4264068711928517 0.0L 1.7157287525380993 0.0" fill="none" stroke="black" /><path d="M 2.9289321881345254 1.2132034355964258L 3.6396103067892778 0.5025253169416735L 2.9289321881345254 0.5025253169416735L 2.9289321881345254 1.2132034355964258" fill="none" stroke="black" /><path d="M 5.857864376269051 0.0L 5.3553390593273775 0.5025253169416735L 4.644660940672624 0.5025253169416735L 5.1471862576142975 0.0L 5.857864376269051 0.0" fill="none" stroke="black" /><path d="M 4.644660940672624 1.2132034355964258L 4.142135623730951 0.7106781186547523L 4.142135623730951 0.0L 4.644660940672624 0.5025253169416735L 4.644660940672624 1.2132034355964258" fill="none" stroke="black" /><path d="M 4.644660940672624 1.2132034355964258L 5.3553390593273775 0.5025253169416735L 4.644660940672624 0.5025253169416735L 4.644660940672624 1.2132034355964258" fill="none" stroke="black" /><path d="M 4.14213562373095 1.7157287525380993L 4.142135623730951 0.7106781186547523L 4.644660940672624 1.2132034355964258L 4.14213562373095 1.7157287525380993" fill="none" stroke="black" /><path d="M 4.142135623730951 0.0L 5.1471862576142975 0.0L 4.644660940672624 0.5025253169416735L 4.142135623730951 0.0" fill="none" stroke="black" /><path d="M 2.928932188134525 2.928932188134525L 2.4264068711928517 2.4264068711928517L 2.4264068711928517 1.7157287525380993L 2.928932188134525 2.2182540694797726L 2.928932188134525 2.928932188134525" fill="none" stroke="black" /><path d="M 1.7157287525380993 1.7157287525380993L 2.218254069479773 1.2132034355964258L 2.9289321881345254 1.2132034355964258L 2.4264068711928517 1.7157287525380993L 1.7157287525380993 1.7157287525380993" fill="none" stroke="black" /><path d="M 1.7157287525380993 1.7157287525380993L 2.4264068711928517 2.4264068711928517L 2.4264068711928517 1.7157287525380993L 1.7157287525380993 1.7157287525380993" fill="none" stroke="black" /><path d="M 1.2132034355964258 1.2132034355964258L 2.218254069479773 1.2132034355964258L 1.7157287525380993 1.7157287525380993L 1.2132034355964258 1.2132034355964258" fill="none" stroke="black" /><path d="M 2.9289321881345254 1.2132034355964258L 2.928932188134525 2.2182540694797726L 2.4264068711928517 1.7157287525380993L 2.9289321881345254 1.2132034355964258" fill="none" stroke="black" /><path d="M 0 10L 0.0 9.289321881345247L 0.5025253169416735 8.786796564403573L 0.5025253169416735 9.497474683058327L 0 10" fill="none" stroke="black" /><path d="M 0.0 8.2842712474619L 0.7106781186547526 8.2842712474619L 1.2132034355964258 8.786796564403573L 0.5025253169416735 8.786796564403573L 0.0 8.2842712474619" fill="none" stroke="black" /><path d="M 0.7106781186547526 8.2842712474619L 0.7106781186547527 7.573593128807148L 1.2132034355964258 7.071067811865475L 1.2132034355964258 7.781745930520227L 0.7106781186547526 8.2842712474619" fill="none" stroke="black" /><path d="M 0.0 8.2842712474619L 0.0 9.289321881345247L 0.5025253169416735 8.786796564403573L 0.0 8.2842712474619" fill="none" stroke="black" /><path d="M 0.0 8.2842712474619L 0.7106781186547527 7.573593128807148L 0.7106781186547526 8.2842712474619L 0.0 8.2842712474619" fill="none" stroke="black" /><path d="M 1.2132034355964258 8.786796564403573L 1.2132034355964258 7.781745930520227L 0.7106781186547526 8.2842712474619L 1.2132034355964258 8.786796564403573" fill="none" stroke="black" /><path d="M 1.2132034355964258 8.786796564403573L 0.5025253169416735 9.497474683058327L 0.5025253169416735 8.786796564403573L 1.2132034355964258 8.786796564403573" fill="none" stroke="black" /><path d="M 0.0 5.857864376269051L 0.7106781186547527 5.857864376269051L 1.213203435596426 6.360389693210723L 0.5025253169416735 6.360389693210723L 0.0 5.857864376269051" fill="none" stroke="black" /><path d="M 1.7157287525380993 5.85786437626905L 1.7157287525380993 6.568542494923801L 1.2132034355964258 7.071067811865475L 1.213203435596426 6.360389693210723L 1.7157287525380993 5.85786437626905" fill="none" stroke="black" /><path d="M 1.7157287525380993 6.568542494923801L 2.4264068711928517 6.568542494923801L 2.928932188134525 7.071067811865475L 2.2182540694797726 7.071067811865475L 1.7157287525380993 6.568542494923801" fill="none" stroke="black" /><path d="M 1.7157287525380993 5.85786437626905L 0.7106781186547527 5.857864376269051L 1.213203435596426 6.360389693210723L 1.7157287525380993 5.85786437626905" fill="none" stroke="black" /><path d="M 1.7157287525380993 5.85786437626905L 2.4264068711928517 6.568542494923801L 1.7157287525380993 6.568542494923801L 1.7157287525380993 5.85786437626905" fill="none" stroke="black" /><path d="M 1.2132034355964258 7.071067811865475L 2.2182540694797726 7.071067811865475L 1.7157287525380993 6.568542494923801L 1.2132034355964258 7.071067811865475" fill="none" stroke="black" /><path d="M 1.2132034355964258 7.071067811865475L 0.5025253169416735 6.360389693210723L 1.213203435596426 6.360389693210723L 1.2132034355964258 7.071067811865475" fill="none" stroke="black" /><path d="M 0.0 5.857864376269051L 0.0 6.568542494923802L 0.5025253169416735 7.071067811865475L 0.5025253169416735 6.360389693210723L 0.0 5.857864376269051" fill="none" stroke="black" /><path d="M 0.0 7.573593128807149L 0.7106781186547527 7.573593128807148L 1.2132034355964258 7.071067811865475L 0.5025253169416735 7.071067811865475L 0.0 7.573593128807149" fill="none" stroke="black" /><path d="M 0.0 7.573593128807149L 0.0 6.568542494923802L 0.5025253169416735 7.071067811865475L 0.0 7.573593128807149" fill="none" stroke="black" /><path d="M 0.0 8.2842712474619L 0.7106781186547527 7.573593128807148L 0.0 7.573593128807149L 0.0 8.2842712474619" fill="none" stroke="black" /><path d="M 1.2132034355964258 7.071067811865475L 0.5025253169416735 6.360389693210723L 0.5025253169416735 7.071067811865475L 1.2132034355964258 7.071067811865475" fill="none" stroke="black" /><path d="M 0.0 4.142135623730951L 0.5025253169416735 4.644660940672624L 0.5025253169416735 5.3553390593273775L 0.0 4.852813742385703L 0.0 4.142135623730951" fill="none" stroke="black" /><path d="M 1.2132034355964258 5.355339059327377L 0.7106781186547523 5.857864376269051L 0.0 5.857864376269051L 0.5025253169416735 5.3553390593273775L 1.2132034355964258 5.355339059327377" fill="none" stroke="black" /><path d="M 1.2132034355964258 5.355339059327377L 0.5025253169416735 4.644660940672624L 0.5025253169416735 5.3553390593273775L 1.2132034355964258 5.355339059327377" fill="none" stroke="black" /><path d="M 1.7157287525380993 5.85786437626905L 0.7106781186547523 5.857864376269051L 1.2132034355964258 5.355339059327377L 1.7157287525380993 5.85786437626905" fill="none" stroke="black" /><path d="M 0.0 5.857864376269051L 0.0 4.852813742385703L 0.5025253169416735 5.3553390593273775L 0.0 5.857864376269051" fill="none" stroke="black" /><path d="M 2.928932188134525 7.071067811865475L 2.4264068711928517 7.573593128807148L 1.7157287525380993 7.573593128807148L 2.2182540694797726 7.071067811865475L 2.928932188134525 7.071067811865475" fill="none" stroke="black" /><path d="M 1.7157287525380993 8.2842712474619L 1.2132034355964258 7.781745930520227L 1.2132034355964258 7.071067811865475L 1.7157287525380993 7.573593128807148L 1.7157287525380993 8.2842712474619" fill="none" stroke="black" /><path d="M 1.7157287525380993 8.2842712474619L 2.4264068711928517 7.573593128807148L 1.7157287525380993 7.573593128807148L 1.7157287525380993 8.2842712474619" fill="none" stroke="black" /><path d="M 1.2132034355964258 8.786796564403573L 1.2132034355964258 7.781745930520227L 1.7157287525380993 8.2842712474619L 1.2132034355964258 8.786796564403573" fill="none" stroke="black" /><path d="M 1.2132034355964258 7.071067811865475L 2.2182540694797726 7.071067811865475L 1.7157287525380993 7.573593128807148L 1.2132034355964258 7.071067811865475" fill="none" stroke="black" /><path d="M 0 10L 0.7106781186547527 10.0L 1.213203435596426 9.497474683058327L 0.5025253169416735 9.497474683058327L 0 10" fill="none" stroke="black" /><path d="M 1.7157287525380993 10.0L 1.715728752538099 9.289321881345247L 1.2132034355964258 8.786796564403573L 1.213203435596426 9.497474683058327L 1.7157287525380993 10.0" fill="none" stroke="black" /><path d="M 1.715728752538099 9.289321881345247L 2.426406871192852 9.289321881345247L 2.9289321881345254 8.786796564403573L 2.218254069479773 8.786796564403573L 1.715728752538099 9.289321881345247" fill="none" stroke="black" /><path d="M 1.7157287525380993 10.0L 0.7106781186547527 10.0L 1.213203435596426 9.497474683058327L 1.7157287525380993 10.0" fill="none" stroke="black" /><path d="M 1.7157287525380993 10.0L 2.426406871192852 9.289321881345247L 1.715728752538099 9.289321881345247L 1.7157287525380993 10.0" fill="none" stroke="black" /><path d="M 1.2132034355964258 8.786796564403573L 2.218254069479773 8.786796564403573L 1.715728752538099 9.289321881345247L 1.2132034355964258 8.786796564403573" fill="none" stroke="black" /><path d="M 1.2132034355964258 8.786796564403573L 0.5025253169416735 9.497474683058327L 1.213203435596426 9.497474683058327L 1.2132034355964258 8.786796564403573" fill="none" stroke="black" /><path d="M 4.142135623730951 10.0L 4.142135623730951 9.289321881345247L 3.6396103067892778 8.786796564403573L 3.6396103067892778 9.497474683058327L 4.142135623730951 10.0" fill="none" stroke="black" /><path d="M 4.14213562373095 8.2842712474619L 3.431457505076198 8.2842712474619L 2.9289321881345254 8.786796564403573L 3.6396103067892778 8.786796564403573L 4.14213562373095 8.2842712474619" fill="none" stroke="black" /><path d="M 3.431457505076198 8.2842712474619L 3.431457505076198 7.573593128807148L 2.928932188134525 7.071067811865475L 2.928932188134525 7.781745930520227L 3.431457505076198 8.2842712474619" fill="none" stroke="black" /><path d="M 4.14213562373095 8.2842712474619L 4.142135623730951 9.289321881345247L 3.6396103067892778 8.786796564403573L 4.14213562373095 8.2842712474619" fill="none" stroke="black" /><path d="M 4.14213562373095 8.2842712474619L 3.431457505076198 7.573593128807148L 3.431457505076198 8.2842712474619L 4.14213562373095 8.2842712474619" fill="none" stroke="black" /><path d="M 2.9289321881345254 8.786796564403573L 2.928932188134525 7.781745930520227L 3.431457505076198 8.2842712474619L 2.9289321881345254 8.786796564403573" fill="none" stroke="black" /><path d="M 2.9289321881345254 8.786796564403573L 3.6396103067892778 9.497474683058327L 3.6396103067892778 8.786796564403573L 2.9289321881345254 8.786796564403573" fill="none" stroke="black" /><path d="M 4.142135623730951 10.0L 3.4314575050761986 10.0L 2.9289321881345254 9.497474683058327L 3.6396103067892778 9.497474683058327L 4.142135623730951 10.0" fill="none" stroke="black" /><path d="M 2.4264068711928517 10.0L 2.426406871192852 9.289321881345247L 2.9289321881345254 8.786796564403573L 2.9289321881345254 9.497474683058327L 2.4264068711928517 10.0" fill="none" stroke="black" /><path d="M 2.4264068711928517 10.0L 3.4314575050761986 10.0L 2.9289321881345254 9.497474683058327L 2.4264068711928517 10.0" fill="none" stroke="black" /><path d="M 1.7157287525380993 10.0L 2.426406871192852 9.289321881345247L 2.4264068711928517 10.0L 1.7157287525380993 10.0" fill="none" stroke="black" /><path d="M 2.9289321881345254 8.786796564403573L 3.6396103067892778 9.497474683058327L 2.9289321881345254 9.497474683058327L 2.9289321881345254 8.786796564403573" fill="none" stroke="black" /><path d="M 5.857864376269051 10.0L 5.3553390593273775 9.497474683058327L 4.644660940672624 9.497474683058327L 5.1471862576142975 10.0L 5.857864376269051 10.0" fill="none" stroke="black" /><path d="M 4.644660940672624 8.786796564403573L 4.142135623730951 9.289321881345247L 4.142135623730951 10.0L 4.644660940672624 9.497474683058327L 4.644660940672624 8.786796564403573" fill="none" stroke="black" /><path d="M 4.644660940672624 8.786796564403573L 5.3553390593273775 9.497474683058327L 4.644660940672624 9.497474683058327L 4.644660940672624 8.786796564403573" fill="none" stroke="black" /><path d="M 4.14213562373095 8.2842712474619L 4.142135623730951 9.289321881345247L 4.644660940672624 8.786796564403573L 4.14213562373095 8.2842712474619" fill="none" stroke="black" /><path d="M 4.142135623730951 10.0L 5.1471862576142975 10.0L 4.644660940672624 9.497474683058327L 4.142135623730951 10.0" fill="none" stroke="black" /><path d="M 2.928932188134525 7.071067811865475L 2.4264068711928517 7.573593128807148L 2.4264068711928517 8.2842712474619L 2.928932188134525 7.781745930520227L 2.928932188134525 7.071067811865475" fill="none" stroke="black" /><path d="M 1.7157287525380993 8.2842712474619L 2.218254069479773 8.786796564403573L 2.9289321881345254 8.786796564403573L 2.4264068711928517 8.2842712474619L 1.7157287525380993 8.2842712474619" fill="none" stroke="black" /><path d="M 1.7157287525380993 8.2842712474619L 2.4264068711928517 7.573593128807148L 2.4264068711928517 8.2842712474619L 1.7157287525380993 8.2842712474619" fill="none" stroke="black" /><path d="M 1.2132034355964258 8.786796564403573L 2.218254069479773 8.786796564403573L 1.7157287525380993 8.2842712474619L 1.2132034355964258 8.786796564403573" fill="none" stroke="black" /><path d="M 2.9289321881345254 8.786796564403573L 2.928932188134525 7.781745930520227L 2.4264068711928517 8.2842712474619L 2.9289321881345254 8.786796564403573" fill="none" stroke="black" /><path d="M 10 10L 10.0 9.289321881345247L 9.497474683058327 8.786796564403573L 9.497474683058327 9.497474683058327L 10 10" fill="none" stroke="black" /><path d="M 10.0 8.2842712474619L 9.289321881345247 8.2842712474619L 8.786796564403573 8.786796564403573L 9.497474683058327 8.786796564403573L 10.0 8.2842712474619" fill="none" stroke="black" /><path d="M 9.289321881345247 8.2842712474619L 9.289321881345247 7.573593128807148L 8.786796564403573 7.071067811865475L 8.786796564403573 7.781745930520227L 9.289321881345247 8.2842712474619" fill="none" stroke="black" /><path d="M 10.0 8.2842712474619L 10.0 9.289321881345247L 9.497474683058327 8.786796564403573L 10.0 8.2842712474619" fill="none" stroke="black" /><path d="M 10.0 8.2842712474619L 9.289321881345247 7.573593128807148L 9.289321881345247 8.2842712474619L 10.0 8.2842712474619" fill="none" stroke="black" /><path d="M 8.786796564403573 8.786796564403573L 8.786796564403573 7.781745930520227L 9.289321881345247 8.2842712474619L 8.786796564403573 8.786796564403573" fill="none" stroke="black" /><path d="M 8.786796564403573 8.786796564403573L 9.497474683058327 9.497474683058327L 9.497474683058327 8.786796564403573L 8.786796564403573 8.786796564403573" fill="none" stroke="black" /><path d="M 10.0 5.857864376269051L 9.289321881345247 5.857864376269051L 8.786796564403573 6.360389693210723L 9.497474683058327 6.360389693210723L 10.0 5.857864376269051" fill="none" stroke="black" /><path d="M 8.2842712474619 5.85786437626905L 8.2842712474619 6.568542494923801L 8.786796564403573 7.071067811865475L 8.786796564403573 6.360389693210723L 8.2842712474619 5.85786437626905" fill="none" stroke="black" /><path d="M 8.2842712474619 6.568542494923801L 7.573593128807149 6.568542494923801L 7.0710678118654755 7.071067811865475L 7.781745930520227 7.071067811865475L 8.2842712474619 6.568542494923801" fill="none" stroke="black" /><path d="M 8.2842712474619 5.85786437626905L 9.289321881345247 5.857864376269051L 8.786796564403573 6.360389693210723L 8.2842712474619 5.85786437626905" fill="none" stroke="black" /><path d="M 8.2842712474619 5.85786437626905L 7.573593128807149 6.568542494923801L 8.2842712474619 6.568542494923801L 8.2842712474619 5.85786437626905" fill="none" stroke="black" /><path d="M 8.786796564403573 7.071067811865475L 7.781745930520227 7.071067811865475L 8.2842712474619 6.568542494923801L 8.786796564403573 7.071067811865475" fill="none" stroke="black" /><path d="M 8.786796564403573 7.071067811865475L 9.497474683058327 6.360389693210723L 8.786796564403573 6.360389693210723L 8.786796564403573 7.071067811865475" fill="none" stroke="black" /><path d="M 10.0 5.857864376269051L 10.0 6.568542494923802L 9.497474683058327 7.071067811865475L 9.497474683058327 6.360389693210723L 10.0 5.857864376269051" fill="none" stroke="black" /><path d="M 10.0 7.573593128807149L 9.289321881345247 7.573593128807148L 8.786796564403573 7.071067811865475L 9.497474683058327 7.071067811865475L 10.0 7.573593128807149" fill="none" stroke="black" /><path d="M 10.0 7.573593128807149L 10.0 6.568542494923802L 9.497474683058327 7.071067811865475L 10.0 7.573593128807149" fill="none" stroke="black" /><path d="M 10.0 8.2842712474619L 9.289321881345247 7.573593128807148L 10.0 7.573593128807149L 10.0 8.2842712474619" fill="none" stroke="black" /><path d="M 8.786796564403573 7.071067811865475L 9.497474683058327 6.360389693210723L 9.497474683058327 7.071067811865475L 8.786796564403573 7.071067811865475" fill="none" stroke="black" /><path d="M 10.0 4.142135623730951L 9.497474683058327 4.644660940672624L 9.497474683058327 5.3553390593273775L 10.0 4.852813742385703L 10.0 4.142135623730951" fill="none" stroke="black" /><path d="M 8.786796564403573 5.355339059327377L 9.289321881345247 5.857864376269051L 10.0 5.857864376269051L 9.497474683058327 5.3553390593273775L 8.786796564403573 5.355339059327377" fill="none" stroke="black" /><path d="M 8.786796564403573 5.355339059327377L 9.497474683058327 4.644660940672624L 9.497474683058327 5.3553390593273775L 8.786796564403573 5.355339059327377" fill="none" stroke="black" /><path d="M 8.2842712474619 5.85786437626905L 9.289321881345247 5.857864376269051L 8.786796564403573 5.355339059327377L 8.2842712474619 5.85786437626905" fill="none" stroke="black" /><path d="M 10.0 5.857864376269051L 10.0 4.852813742385703L 9.497474683058327 5.3553390593273775L 10.0 5.857864376269051" fill="none" stroke="black" /><path d="M 7.0710678118654755 7.071067811865475L 7.573593128807149 7.573593128807148L 8.2842712474619 7.573593128807148L 7.781745930520227 7.071067811865475L 7.0710678118654755 7.071067811865475" fill="none" stroke="black" /><path d="M 8.2842712474619 8.2842712474619L 8.786796564403573 7.781745930520227L 8.786796564403573 7.071067811865475L 8.2842712474619 7.573593128807148L 8.2842712474619 8.2842712474619" fill="none" stroke="black" /><path d="M 8.2842712474619 8.2842712474619L 7.573593128807149 7.573593128807148L 8.2842712474619 7.573593128807148L 8.2842712474619 8.2842712474619" fill="none" stroke="black" /><path d="M 8.786796564403573 8.786796564403573L 8.786796564403573 7.781745930520227L 8.2842712474619 8.2842712474619L 8.786796564403573 8.786796564403573" fill="none" stroke="black" /><path d="M 8.786796564403573 7.071067811865475L 7.781745930520227 7.071067811865475L 8.2842712474619 7.573593128807148L 8.786796564403573 7.071067811865475" fill="none" stroke="black" /></svg>