<?xml version="1.0" encoding="utf-8" ?>
<svg xmlns="http://www.w3.org/2000/svg" xmlns:ev="http://www.w3.org/2001/xml-events" xmlns:xlink="http://www.w3.org/1999/xlink" baseProfile="full" height="100%" version="1.1" viewBox="-265.7475 -531.495 531.495 708.66" width="100%">
  <defs/>
  <path d="M -248.031 -513.7785 L 248.031 -513.7785 L 248.031 159.4485 L -248.031 159.4485 L -248.031 -513.7785" fill="yellow" stroke="none"/>
  <path d="M -265.7475,-531.495 L 265.7475,-531.495 L 265.7475,177.165 L -265.7475,177.165 L -265.7475,-531.495 M -230.3145,-58.9479504512543 L -230.29416855007986,-58.9331787882313 L -224.78347195029858,-75.89335899174581 L -230.3145,-79.91188609344447 L -230.3145,-58.9479504512543 L -230.3145,-58.9479504512543 M -230.3145,-31.093934476865766 L -224.78347195029858,-35.11246157856439 L -230.29416855007986,-52.072641782078904 L -230.3145,-52.057870119055906 L -230.3145,-31.093934476865766 L -230.3145,-31.093934476865766 M -230.3145,52.057870119055906 L -230.29416855007986,52.072641782078904 L -224.78347195029858,35.11246157856439 L -230.3145,31.093934476865766 L -230.3145,52.057870119055906 L -230.3145,52.057870119055906 M -230.3145,79.91188609344447 L -224.78347195029858,75.89335899174581 L -230.29416855007986,58.9331787882313 L -230.3145,58.9479504512543 L -230.3145,79.91188609344447 L -230.3145,79.91188609344447 M -230.3145,-2.1200225254393175 L -226.46264602468244,-2.120022525439319 L -220.95194942490113,-19.08020272895382 L -230.3145,-19.080202728953818 L -230.3145,-2.1200225254393175 L -230.3145,-2.1200225254393175 M -230.3145,19.080202728953818 L -220.95194942490113,19.08020272895382 L -226.46264602468244,2.120022525439319 L -230.3145,2.1200225254393175 L -230.3145,19.080202728953818 L -230.3145,19.080202728953818 M -230.3145,-91.92561784135641 L -220.9519494249011,-91.9256178413564 L -226.46264602468239,-108.88579804487091 L -230.3145,-108.88579804487091 L -230.3145,-91.92561784135641 L -230.3145,-91.92561784135641 M -230.3145,108.88579804487091 L -226.46264602468239,108.88579804487091 L -220.9519494249011,91.9256178413564 L -230.3145,91.92561784135641 L -230.3145,108.88579804487091 L -230.3145,108.88579804487091 M -230.3145,-112.3160665479471 L -225.34808422466557,-112.3160665479471 L -210.9208932247497,-122.79803436904218 L -228.75388202501887,-122.79803436904218 L -230.3145,-121.66417904024878 L -230.3145,-112.3160665479471 L -230.3145,-112.3160665479471 M -230.3145,121.66417904024878 L -228.75388202501887,122.79803436904218 L -210.9208932247497,122.79803436904218 L -225.34808422466557,112.3160665479471 L -230.3145,112.3160665479471 L -230.3145,121.66417904024878 L -230.3145,121.66417904024878 M -230.3145,-22.510471232030017 L -218.45971347493898,-22.510471232030017 L -204.03252247502311,-32.992439053125096 L -221.86551127529228,-32.99243905312509 L -230.3145,-26.853889425987163 L -230.3145,-22.510471232030017 L -230.3145,-22.510471232030017 M -230.3145,26.853889425987163 L -221.86551127529228,32.99243905312509 L -204.03252247502311,32.992439053125096 L -218.45971347493898,22.510471232030017 L -230.3145,22.510471232030017 L -230.3145,26.853889425987163 L -230.3145,26.853889425987163 M -230.3145,-84.15193114432309 L -221.86551127529228,-78.01338151718512 L -204.03252247502306,-78.01338151718511 L -218.45971347493895,-88.49534933828019 L -230.3145,-88.4953493382802 L -230.3145,-84.15193114432309 L -230.3145,-84.15193114432309 M -230.3145,88.4953493382802 L -218.45971347493895,88.49534933828019 L -204.03252247502306,78.01338151718511 L -221.86551127529228,78.01338151718512 L -230.3145,84.15193114432309 L -230.3145,88.4953493382802 L -230.3145,88.4953493382802 M -208.42865727478758,-53.38288775971581 L -226.26164607505675,-53.38288775971579 L -220.75094947527546,-36.42270755620129 L -202.9179606750063,-36.42270755620129 L -208.42865727478758,-53.38288775971581 L -208.42865727478758,-53.38288775971581 M -220.75094947527546,36.42270755620129 L -226.26164607505675,53.38288775971579 L -208.42865727478758,53.38288775971581 L -202.9179606750063,36.42270755620129 L -220.75094947527546,36.42270755620129 L -220.75094947527546,36.42270755620129 M -221.22418951377847,-141.732 L -226.26164607505675,-126.22830287211838 L -208.42865727478755,-126.22830287211838 L -203.39120071350928,-141.732 L -221.22418951377847,-141.732 L -221.22418951377847,-141.732 M -220.75094947527546,-74.58311301410893 L -226.26164607505675,-57.62293281059442 L -208.42865727478755,-57.62293281059443 L -202.91796067500627,-74.58311301410895 L -220.75094947527546,-74.58311301410893 L -220.75094947527546,-74.58311301410893 M -208.42865727478755,57.62293281059443 L -226.26164607505675,57.62293281059442 L -220.75094947527546,74.58311301410893 L -202.91796067500627,74.58311301410895 L -208.42865727478755,57.62293281059443 L -208.42865727478755,57.62293281059443 M -203.39120071350928,141.732 L -208.42865727478755,126.22830287211838 L -226.26164607505675,126.22830287211838 L -221.22418951377847,141.732 L -203.39120071350928,141.732 L -203.39120071350928,141.732 M -202.4922359499621,-30.87241652768578 L -216.919426949878,-20.390448706590703 L -222.4301235496593,-3.430268503076197 L -208.0029325497434,-13.912236324171273 L -202.4922359499621,-30.87241652768578 L -202.4922359499621,-30.87241652768578 M -222.4301235496593,3.430268503076197 L -216.919426949878,20.390448706590703 L -202.4922359499621,30.87241652768578 L -208.0029325497434,13.912236324171273 L -222.4301235496593,3.430268503076197 L -222.4301235496593,3.430268503076197 M -222.43012354965924,-110.19604402250779 L -216.91942694987796,-93.23586381899328 L -202.4922359499621,-103.71783164008836 L -208.00293254974338,-120.67801184360287 L -222.43012354965924,-110.19604402250779 L -222.43012354965924,-110.19604402250779 M -202.4922359499621,103.71783164008836 L -216.91942694987796,93.23586381899328 L -222.43012354965924,110.19604402250779 L -208.00293254974338,120.67801184360287 L -202.4922359499621,103.71783164008836 L -202.4922359499621,103.71783164008836 M -206.8883707497266,10.481967821095076 L -192.46117974981073,0.0 L -206.88837074972665,-10.481967821095076 L -221.31556174964248,0.0 L -206.8883707497266,10.481967821095076 L -206.8883707497266,10.481967821095076 M -200.0,-38.5427300816406 L -194.48930340021872,-55.50291028515511 L -200.0,-72.46309048866962 L -205.51069659978123,-55.50291028515511 L -200.0,-38.5427300816406 L -200.0,-38.5427300816406 M -200.0,72.46309048866962 L -194.48930340021872,55.50291028515511 L -200.0,38.5427300816406 L -205.51069659978123,55.50291028515511 L -200.0,72.46309048866962 L -200.0,72.46309048866962 M -199.99999999999994,-100.28756313701217 L -214.4271909999158,-89.80559531591709 L -199.99999999999994,-79.323627494822 L -185.57280900008408,-89.8055953159171 L -199.99999999999994,-100.28756313701217 L -199.99999999999994,-100.28756313701217 M -199.99999999999994,79.323627494822 L -214.4271909999158,89.80559531591709 L -199.99999999999994,100.28756313701217 L -185.57280900008408,89.8055953159171 L -199.99999999999994,79.323627494822 L -199.99999999999994,79.323627494822 M -204.39613479976444,-13.912236324171273 L -189.96894379984857,-3.430268503076197 L -184.45824720006726,-20.390448706590703 L -198.88543819998316,-30.87241652768578 L -204.39613479976444,-13.912236324171273 L -204.39613479976444,-13.912236324171273 M -184.45824720006726,20.390448706590703 L -189.96894379984857,3.430268503076197 L -204.39613479976444,13.912236324171273 L -198.88543819998316,30.87241652768578 L -184.45824720006726,20.390448706590703 L -184.45824720006726,20.390448706590703 M -198.93295351344196,-141.732 L -204.3961347997644,-124.9180568944815 L -189.96894379984852,-114.43608907338641 L -184.4582472000672,-131.3962692769009 L -198.68416010219926,-141.732 L -198.93295351344196,-141.732 L -198.93295351344196,-141.732 M -184.4582472000672,-93.23586381899328 L -189.96894379984852,-110.19604402250779 L -204.3961347997644,-120.67801184360287 L -198.88543819998313,-103.71783164008836 L -184.4582472000672,-93.23586381899328 L -184.4582472000672,-93.23586381899328 M -204.3961347997644,120.67801184360287 L -189.96894379984852,110.19604402250779 L -184.4582472000672,93.23586381899328 L -198.88543819998313,103.71783164008836 L -204.3961347997644,120.67801184360287 L -204.3961347997644,120.67801184360287 M -198.68416010219926,141.732 L -184.4582472000672,131.3962692769009 L -189.96894379984852,114.43608907338641 L -204.3961347997644,124.9180568944815 L -198.93295351344196,141.732 L -198.68416010219926,141.732 L -198.68416010219926,141.732 M -197.50776405003785,-75.89335899174583 L -191.99706745025657,-58.93317878823131 L -177.56987645034067,-69.4151466093264 L -183.08057305012196,-86.37532681284091 L -197.50776405003785,-75.89335899174583 L -197.50776405003785,-75.89335899174583 M -177.56987645034067,-65.17510155844778 L -191.99706745025657,-54.69313373735268 L -197.50776405003785,-37.73295353383816 L -183.08057305012196,-48.214921354933246 L -177.56987645034067,-65.17510155844778 L -177.56987645034067,-65.17510155844778 M -197.50776405003785,37.73295353383816 L -191.99706745025657,54.69313373735268 L -177.56987645034067,65.17510155844778 L -183.08057305012196,48.214921354933246 L -197.50776405003785,37.73295353383816 L -197.50776405003785,37.73295353383816 M -177.56987645034067,69.4151466093264 L -191.99706745025657,58.93317878823131 L -197.50776405003785,75.89335899174583 L -183.08057305012196,86.37532681284091 L -177.56987645034067,69.4151466093264 L -177.56987645034067,69.4151466093264 M -181.9660112501052,-16.960180203514508 L -187.47670784988645,0.0 L -181.96601125010514,16.960180203514508 L -176.45531465032388,0.0 L -181.9660112501052,-16.960180203514508 L -181.9660112501052,-16.960180203514508 M -191.47056460224132,-141.732 L -181.9660112501051,-134.82653777997712 L -172.4614578979689,-141.732 L -191.47056460224132,-141.732 L -191.47056460224132,-141.732 M -181.9660112501051,-127.96600077382473 L -187.47670784988637,-111.00582057031022 L -181.9660112501051,-94.04564036679571 L -176.4553146503238,-111.0058205703102 L -181.9660112501051,-127.96600077382473 L -181.9660112501051,-127.96600077382473 M -181.96601125010508,-23.820717209666906 L -167.53882025018925,-34.30268503076198 L -181.9660112501051,-44.78465285185705 L -196.393202250021,-34.30268503076198 L -181.96601125010508,-23.820717209666906 L -181.96601125010508,-23.820717209666906 M -181.9660112501051,44.78465285185705 L -167.53882025018925,34.30268503076198 L -181.96601125010508,23.820717209666906 L -196.393202250021,34.30268503076198 L -181.9660112501051,44.78465285185705 L -181.9660112501051,44.78465285185705 M -181.9660112501051,94.04564036679571 L -187.47670784988637,111.00582057031022 L -181.9660112501051,127.96600077382473 L -176.4553146503238,111.0058205703102 L -181.9660112501051,94.04564036679571 L -181.9660112501051,94.04564036679571 M -172.4614578979689,141.732 L -181.9660112501051,134.82653777997712 L -191.47056460224132,141.732 L -172.4614578979689,141.732 L -172.4614578979689,141.732 M -179.473775300143,-48.214921354933246 L -165.04658430022712,-37.73295353383818 L -159.53588770044584,-54.693133737352696 L -173.9630787003617,-65.17510155844778 L -179.473775300143,-48.214921354933246 L -179.473775300143,-48.214921354933246 M -159.53588770044584,54.693133737352696 L -165.04658430022712,37.73295353383818 L -179.473775300143,48.214921354933246 L -173.9630787003617,65.17510155844778 L -159.53588770044584,54.693133737352696 L -159.53588770044584,54.693133737352696 M -173.53735397531753,-70.72539258696328 L -155.70436517504834,-70.72539258696327 L -161.21506177482965,-87.68557279047779 L -179.0480505750988,-87.68557279047779 L -173.53735397531753,-70.72539258696328 L -173.53735397531753,-70.72539258696328 M -173.53735397531756,-2.120022525439313 L -155.70436517504837,-2.120022525439313 L -161.21506177482962,-19.08020272895382 L -179.0480505750988,-19.08020272895382 L -173.53735397531756,-2.120022525439313 L -173.53735397531756,-2.120022525439313 M -161.21506177482962,19.08020272895382 L -155.70436517504837,2.120022525439313 L -173.53735397531756,2.120022525439313 L -179.0480505750988,19.08020272895382 L -161.21506177482962,19.08020272895382 L -161.21506177482962,19.08020272895382 M -161.21506177482965,87.68557279047779 L -155.70436517504834,70.72539258696327 L -173.53735397531753,70.72539258696328 L -179.0480505750988,87.68557279047779 L -161.21506177482965,87.68557279047779 L -161.21506177482965,87.68557279047779 M -173.5373539753175,-113.1258430957495 L -155.70436517504834,-113.1258430957495 L -161.21506177482962,-130.08602329926404 L -179.0480505750988,-130.08602329926404 L -173.5373539753175,-113.1258430957495 L -173.5373539753175,-113.1258430957495 M -161.21506177482962,-91.92561784135638 L -155.70436517504834,-108.88579804487088 L -173.5373539753175,-108.8857980448709 L -179.0480505750988,-91.92561784135641 L -161.21506177482962,-91.92561784135638 L -161.21506177482962,-91.92561784135638 M -173.5373539753175,108.8857980448709 L -155.70436517504834,108.88579804487088 L -161.21506177482962,91.92561784135638 L -179.0480505750988,91.92561784135641 L -173.5373539753175,108.8857980448709 L -173.5373539753175,108.8857980448709 M -161.21506177482962,130.08602329926404 L -155.70436517504834,113.1258430957495 L -173.5373539753175,113.1258430957495 L -179.0480505750988,130.08602329926404 L -161.21506177482962,130.08602329926404 L -161.21506177482962,130.08602329926404 M -166.6255365479563,-141.732 L -177.933488775082,-133.51629180234025 L -160.1004999748128,-133.51629180234025 L -148.7925477476871,-141.732 L -166.6255365479563,-141.732 L -166.6255365479563,-141.732 M -145.6733089748969,-32.992439053125096 L -163.50629777516613,-32.992439053125096 L -177.933488775082,-22.510471232030017 L -160.1004999748128,-22.510471232030017 L -145.6733089748969,-32.992439053125096 L -145.6733089748969,-32.992439053125096 M -177.933488775082,22.510471232030017 L -163.50629777516613,32.992439053125096 L -145.6733089748969,32.992439053125096 L -160.1004999748128,22.510471232030017 L -177.933488775082,22.510471232030017 L -177.933488775082,22.510471232030017 M -148.7925477476871,141.732 L -160.1004999748128,133.51629180234025 L -177.933488775082,133.51629180234025 L -166.6255365479563,141.732 L -148.7925477476871,141.732 L -148.7925477476871,141.732 M -138.78493822517032,-56.81315626279198 L -153.2121292250862,-67.29512408388707 L -171.04511802535538,-67.29512408388709 L -156.6179270254395,-56.81315626279199 L -138.78493822517032,-56.81315626279198 L -138.78493822517032,-56.81315626279198 M -171.04511802535538,67.29512408388709 L -153.2121292250862,67.29512408388707 L -138.78493822517032,56.81315626279198 L -156.6179270254395,56.81315626279199 L -171.04511802535538,67.29512408388709 L -171.04511802535538,67.29512408388709 M -155.5033652254227,-53.3828877597158 L -161.01406182520398,-36.42270755620129 L -143.18107302493482,-36.422707556201274 L -137.6703764251535,-53.382887759715786 L -155.5033652254227,-53.3828877597158 L -155.5033652254227,-53.3828877597158 M -143.18107302493482,36.422707556201274 L -161.01406182520398,36.42270755620129 L -155.5033652254227,53.3828877597158 L -137.6703764251535,53.382887759715786 L -143.18107302493482,36.422707556201274 L -143.18107302493482,36.422707556201274 M -157.1825392998065,-86.3753268128409 L -151.67184270002522,-69.41514660932638 L -137.24465170010936,-58.933178788231295 L -142.75534829989064,-75.89335899174581 L -157.1825392998065,-86.3753268128409 L -157.1825392998065,-86.3753268128409 M -157.1825392998065,-20.390448706590696 L -151.67184270002525,-3.430268503076196 L -137.24465170010936,-13.912236324171271 L -142.75534829989064,-30.872416527685775 L -157.1825392998065,-20.390448706590696 L -157.1825392998065,-20.390448706590696 M -137.24465170010936,13.912236324171271 L -151.67184270002525,3.430268503076196 L -157.1825392998065,20.390448706590696 L -142.75534829989064,30.872416527685775 L -137.24465170010936,13.912236324171271 L -137.24465170010936,13.912236324171271 M -137.24465170010936,58.933178788231295 L -151.67184270002522,69.41514660932638 L -157.1825392998065,86.3753268128409 L -142.75534829989064,75.89335899174581 L -137.24465170010936,58.933178788231295 L -137.24465170010936,58.933178788231295 M -142.95662639767448,-141.732 L -157.18253929980648,-131.39626927690094 L -151.6718427000252,-114.43608907338638 L -137.24465170010933,-124.91805689448147 L -142.70783298643178,-141.732 L -142.95662639767448,-141.732 L -142.95662639767448,-141.732 M -137.24465170010933,-120.67801184360287 L -151.6718427000252,-110.19604402250776 L -157.18253929980645,-93.23586381899324 L -142.7553482998906,-103.71783164008833 L -137.24465170010933,-120.67801184360287 L -137.24465170010933,-120.67801184360287 M -157.18253929980645,93.23586381899324 L -151.6718427000252,110.19604402250776 L -137.24465170010933,120.67801184360287 L -142.7553482998906,103.71783164008833 L -157.18253929980645,93.23586381899324 L -157.18253929980645,93.23586381899324 M -142.70783298643178,141.732 L -137.24465170010933,124.91805689448147 L -151.6718427000252,114.43608907338638 L -157.18253929980648,131.39626927690094 L -142.95662639767448,141.732 L -142.70783298643178,141.732 L -142.70783298643178,141.732 M -141.6407864998738,-79.323627494822 L -127.21359549995793,-89.80559531591706 L -141.6407864998738,-100.28756313701214 L -156.06797749978966,-89.80559531591709 L -141.6407864998738,-79.323627494822 L -141.6407864998738,-79.323627494822 M -141.6407864998738,100.28756313701214 L -127.21359549995793,89.80559531591706 L -141.6407864998738,79.323627494822 L -156.06797749978966,89.80559531591709 L -141.6407864998738,100.28756313701214 L -141.6407864998738,100.28756313701214 M -134.7524157501472,-10.481967821095076 L -149.1796067500631,0.0 L -134.7524157501472,10.481967821095076 L -120.32522475023131,0.0 L -134.7524157501472,-10.481967821095076 L -134.7524157501472,-10.481967821095076 M -139.1485505499117,-103.71783164008835 L -124.7213595499958,-93.23586381899327 L -119.21066295021451,-110.19604402250778 L -133.6378539501304,-120.67801184360287 L -139.1485505499117,-103.71783164008835 L -139.1485505499117,-103.71783164008835 M -119.2106629502145,-69.41514660932637 L -124.7213595499958,-86.37532681284087 L -139.1485505499117,-75.8933589917458 L -133.6378539501304,-58.93317878823129 L -119.2106629502145,-69.41514660932637 L -119.2106629502145,-69.41514660932637 M -139.1485505499117,-35.112461578564385 L -124.7213595499958,-24.63049375746933 L -119.2106629502145,-41.590673960983835 L -133.6378539501304,-52.0726417820789 L -139.1485505499117,-35.112461578564385 L -139.1485505499117,-35.112461578564385 M -119.2106629502145,-3.430268503076197 L -124.7213595499958,-20.390448706590703 L -139.1485505499117,-30.87241652768578 L -133.6378539501304,-13.912236324171273 L -119.2106629502145,-3.430268503076197 L -119.2106629502145,-3.430268503076197 M -139.1485505499117,30.87241652768578 L -124.7213595499958,20.390448706590703 L -119.2106629502145,3.430268503076197 L -133.6378539501304,13.912236324171273 L -139.1485505499117,30.87241652768578 L -139.1485505499117,30.87241652768578 M -119.2106629502145,41.590673960983835 L -124.7213595499958,24.63049375746933 L -139.1485505499117,35.112461578564385 L -133.6378539501304,52.0726417820789 L -119.2106629502145,41.590673960983835 L -119.2106629502145,41.590673960983835 M -139.1485505499117,75.8933589917458 L -124.7213595499958,86.37532681284087 L -119.2106629502145,69.41514660932637 L -133.6378539501304,58.93317878823129 L -139.1485505499117,75.8933589917458 L -139.1485505499117,75.8933589917458 M -119.21066295021451,110.19604402250778 L -124.7213595499958,93.23586381899327 L -139.1485505499117,103.71783164008835 L -133.6378539501304,120.67801184360287 L -119.21066295021451,110.19604402250778 L -119.21066295021451,110.19604402250778 M -138.2495857863645,-141.732 L -133.2121292250862,-126.22830287211835 L -115.37914042481702,-126.22830287211835 L -120.4165969860953,-141.732 L -138.2495857863645,-141.732 L -138.2495857863645,-141.732 M -120.4165969860953,141.732 L -115.37914042481702,126.22830287211835 L -133.2121292250862,126.22830287211835 L -138.2495857863645,141.732 L -120.4165969860953,141.732 L -120.4165969860953,141.732 M -98.45971347493901,-112.31606654794709 L -112.8869044748549,-122.79803436904216 L -130.7198932751241,-122.79803436904214 L -116.2927022752082,-112.31606654794709 L -98.45971347493901,-112.31606654794709 L -98.45971347493901,-112.31606654794709 M -130.7198932751241,122.79803436904214 L -112.8869044748549,122.79803436904216 L -98.45971347493901,112.31606654794709 L -116.2927022752082,112.31606654794709 L -130.7198932751241,122.79803436904214 L -130.7198932751241,122.79803436904214 M -130.71989327512406,-56.81315626279198 L -112.88690447485487,-56.81315626279199 L -98.45971347493897,-67.29512408388707 L -116.29270227520819,-67.29512408388706 L -130.71989327512406,-56.81315626279198 L -130.71989327512406,-56.81315626279198 M -98.459713474939,-43.71069648642316 L -112.88690447485487,-54.19266430751823 L -130.71989327512404,-54.192664307518214 L -116.29270227520819,-43.71069648642315 L -98.459713474939,-43.71069648642316 L -98.459713474939,-43.71069648642316 M -130.71989327512404,54.192664307518214 L -112.88690447485487,54.19266430751823 L -98.459713474939,43.71069648642316 L -116.29270227520819,43.71069648642315 L -130.71989327512404,54.192664307518214 L -130.71989327512404,54.192664307518214 M -98.45971347493897,67.29512408388707 L -112.88690447485487,56.81315626279199 L -130.71989327512406,56.81315626279198 L -116.29270227520819,67.29512408388706 L -98.45971347493897,67.29512408388707 L -98.45971347493897,67.29512408388707 M -115.17814047519138,-108.8857980448709 L -120.68883707497267,-91.92561784135638 L -102.85584827470346,-91.92561784135638 L -97.34515167492218,-108.8857980448709 L -115.17814047519138,-108.8857980448709 L -115.17814047519138,-108.8857980448709 M -102.85584827470348,-87.68557279047775 L -120.68883707497267,-87.68557279047775 L -115.17814047519137,-70.72539258696325 L -97.34515167492218,-70.72539258696327 L -102.85584827470348,-87.68557279047775 L -102.85584827470348,-87.68557279047775 M -115.17814047519137,-40.28042798334696 L -120.68883707497267,-23.32024777983245 L -102.85584827470348,-23.32024777983245 L -97.34515167492218,-40.28042798334696 L -115.17814047519137,-40.28042798334696 L -115.17814047519137,-40.28042798334696 M -102.85584827470348,-19.08020272895382 L -120.68883707497267,-19.08020272895382 L -115.17814047519137,-2.120022525439313 L -97.34515167492218,-2.120022525439313 L -102.85584827470348,-19.08020272895382 L -102.85584827470348,-19.08020272895382 M -115.17814047519137,2.120022525439313 L -120.68883707497267,19.08020272895382 L -102.85584827470348,19.08020272895382 L -97.34515167492218,2.120022525439313 L -115.17814047519137,2.120022525439313 L -115.17814047519137,2.120022525439313 M -102.85584827470348,23.32024777983245 L -120.68883707497267,23.32024777983245 L -115.17814047519137,40.28042798334696 L -97.34515167492218,40.28042798334696 L -102.85584827470348,23.32024777983245 L -102.85584827470348,23.32024777983245 M -115.17814047519137,70.72539258696325 L -120.68883707497267,87.68557279047775 L -102.85584827470348,87.68557279047775 L -97.34515167492218,70.72539258696327 L -115.17814047519137,70.72539258696325 L -115.17814047519137,70.72539258696325 M -102.85584827470346,91.92561784135638 L -120.68883707497267,91.92561784135638 L -115.17814047519138,108.8857980448709 L -97.34515167492218,108.8857980448709 L -102.85584827470346,91.92561784135638 L -102.85584827470346,91.92561784135638 M -115.95834978602801,-141.732 L -111.34661794979391,-127.53854884975524 L -96.91942694987802,-138.02051667085033 L -98.12536098575882,-141.732 L -115.95834978602801,-141.732 L -115.95834978602801,-141.732 M -98.12536098575882,141.732 L -96.91942694987802,138.02051667085033 L -111.34661794979391,127.53854884975524 L -115.95834978602801,141.732 L -98.12536098575882,141.732 L -98.12536098575882,141.732 M -94.42719099991587,-134.59024816777412 L -108.85438199983176,-124.10828034667904 L -94.42719099991587,-113.62631252558396 L -79.99999999999997,-124.10828034667904 L -94.42719099991587,-134.59024816777412 L -94.42719099991587,-134.59024816777412 M -94.42719099991587,-72.84541511240258 L -88.91649440013458,-89.80559531591706 L -94.42719099991587,-106.76577551943157 L -99.93788759969716,-89.80559531591706 L -94.42719099991587,-72.84541511240258 L -94.42719099991587,-72.84541511240258 M -94.42719099991587,-65.98487810625019 L -108.85438199983174,-55.50291028515511 L -94.42719099991587,-45.02094246406004 L -79.99999999999997,-55.502910285155124 L -94.42719099991587,-65.98487810625019 L -94.42719099991587,-65.98487810625019 M -94.42719099991587,-4.240045050878621 L -88.91649440013458,-21.200225254393132 L -94.42719099991587,-38.16040545790765 L -99.93788759969716,-21.200225254393132 L -94.42719099991587,-4.240045050878621 L -94.42719099991587,-4.240045050878621 M -94.42719099991587,38.16040545790765 L -88.91649440013458,21.200225254393132 L -94.42719099991587,4.240045050878621 L -99.93788759969716,21.200225254393132 L -94.42719099991587,38.16040545790765 L -94.42719099991587,38.16040545790765 M -94.42719099991587,45.02094246406004 L -108.85438199983174,55.50291028515511 L -94.42719099991587,65.98487810625019 L -79.99999999999997,55.502910285155124 L -94.42719099991587,45.02094246406004 L -94.42719099991587,45.02094246406004 M -94.42719099991587,106.76577551943157 L -88.91649440013458,89.80559531591706 L -94.42719099991587,72.84541511240258 L -99.93788759969716,89.80559531591706 L -94.42719099991587,106.76577551943157 L -94.42719099991587,106.76577551943157 M -94.42719099991587,113.62631252558396 L -108.85438199983176,124.10828034667904 L -94.42719099991587,134.59024816777412 L -79.99999999999997,124.10828034667904 L -94.42719099991587,113.62631252558396 L -94.42719099991587,113.62631252558396 M -94.51856323577984,-141.732 L -93.31262919989904,-138.02051667085033 L -78.88543819998316,-127.53854884975524 L -83.49717003621726,-141.732 L -94.51856323577984,-141.732 L -94.51856323577984,-141.732 M -83.49717003621726,141.732 L -78.88543819998316,127.53854884975524 L -93.31262919989904,138.02051667085033 L -94.51856323577984,141.732 L -83.49717003621726,141.732 L -83.49717003621726,141.732 M -91.93495504995373,-110.19604402250778 L -86.42425845017243,-93.23586381899327 L -71.99706745025655,-103.71783164008835 L -77.50776405003784,-120.67801184360285 L -91.93495504995373,-110.19604402250778 L -91.93495504995373,-110.19604402250778 M -71.99706745025655,-75.89335899174581 L -86.42425845017243,-86.37532681284087 L -91.93495504995373,-69.41514660932638 L -77.50776405003784,-58.933178788231324 L -71.99706745025655,-75.89335899174581 L -71.99706745025655,-75.89335899174581 M -91.93495504995371,-41.59067396098385 L -86.42425845017243,-24.63049375746933 L -71.99706745025655,-35.11246157856441 L -77.50776405003784,-52.07264178207893 L -91.93495504995371,-41.59067396098385 L -91.93495504995371,-41.59067396098385 M -71.99706745025655,-30.87241652768578 L -86.42425845017243,-20.390448706590703 L -91.93495504995371,-3.430268503076197 L -77.50776405003784,-13.912236324171273 L -71.99706745025655,-30.87241652768578 L -71.99706745025655,-30.87241652768578 M -91.93495504995371,3.430268503076197 L -86.42425845017243,20.390448706590703 L -71.99706745025655,30.87241652768578 L -77.50776405003784,13.912236324171273 L -91.93495504995371,3.430268503076197 L -91.93495504995371,3.430268503076197 M -71.99706745025655,35.11246157856441 L -86.42425845017243,24.63049375746933 L -91.93495504995371,41.59067396098385 L -77.50776405003784,52.07264178207893 L -71.99706745025655,35.11246157856441 L -71.99706745025655,35.11246157856441 M -91.93495504995373,69.41514660932638 L -86.42425845017243,86.37532681284087 L -71.99706745025655,75.89335899174581 L -77.50776405003784,58.933178788231324 L -91.93495504995373,69.41514660932638 L -91.93495504995373,69.41514660932638 M -71.99706745025655,103.71783164008835 L -86.42425845017243,93.23586381899327 L -91.93495504995373,110.19604402250778 L -77.50776405003784,120.67801184360285 L -71.99706745025655,103.71783164008835 L -71.99706745025655,103.71783164008835 M -76.39320225002102,10.481967821095076 L -61.96601125010514,0.0 L -76.39320225002102,-10.481967821095076 L -90.8203932499369,0.0 L -76.39320225002102,10.481967821095076 L -76.39320225002102,10.481967821095076 M -80.74182173632663,-141.732 L -76.393202250021,-128.34832539755766 L -72.04458276371537,-141.732 L -80.74182173632663,-141.732 L -80.74182173632663,-141.732 M -72.04458276371537,141.732 L -76.393202250021,128.34832539755766 L -80.74182173632663,141.732 L -72.04458276371537,141.732 L -72.04458276371537,141.732 M -69.5048315002944,-100.28756313701216 L -83.9320225002103,-89.80559531591707 L -69.5048315002944,-79.32362749482202 L -55.077640500378514,-89.80559531591709 L -69.5048315002944,-100.28756313701216 L -69.5048315002944,-100.28756313701216 M -69.5048315002944,79.32362749482202 L -83.9320225002103,89.80559531591707 L -69.5048315002944,100.28756313701216 L -55.077640500378514,89.80559531591709 L -69.5048315002944,79.32362749482202 L -69.5048315002944,79.32362749482202 M -73.90096630005887,-13.912236324171273 L -59.473775300143,-3.430268503076198 L -53.9630787003617,-20.39044870659071 L -68.39026970027759,-30.87241652768579 L -73.90096630005887,-13.912236324171273 L -73.90096630005887,-13.912236324171273 M -53.9630787003617,20.39044870659071 L -59.473775300143,3.430268503076198 L -73.90096630005887,13.912236324171273 L -68.39026970027759,30.87241652768579 L -53.9630787003617,20.39044870659071 L -53.9630787003617,20.39044870659071 M -53.96307870036169,-93.23586381899328 L -59.473775300142975,-110.19604402250779 L -73.90096630005887,-120.67801184360285 L -68.39026970027757,-103.71783164008835 L -53.96307870036169,-93.23586381899328 L -53.96307870036169,-93.23586381899328 M -73.90096630005887,-58.93317878823131 L -59.473775300142975,-69.41514660932638 L -53.96307870036169,-86.37532681284088 L -68.39026970027757,-75.89335899174581 L -73.90096630005887,-58.93317878823131 L -73.90096630005887,-58.93317878823131 M -53.96307870036169,86.37532681284088 L -59.473775300142975,69.41514660932638 L -73.90096630005887,58.93317878823131 L -68.39026970027757,75.89335899174581 L -53.96307870036169,86.37532681284088 L -53.96307870036169,86.37532681284088 M -73.90096630005887,120.67801184360285 L -59.473775300142975,110.19604402250779 L -53.96307870036169,93.23586381899328 L -68.39026970027757,103.71783164008835 L -73.90096630005887,120.67801184360285 L -73.90096630005887,120.67801184360285 M -67.96454497523341,-36.4227075562013 L -50.131556174964224,-36.42270755620129 L -55.642252774745515,-53.3828877597158 L -73.47524157501469,-53.382887759715814 L -67.96454497523341,-36.4227075562013 L -67.96454497523341,-36.4227075562013 M -55.642252774745515,53.3828877597158 L -50.131556174964224,36.42270755620129 L -67.96454497523341,36.4227075562013 L -73.47524157501469,53.382887759715814 L -55.642252774745515,53.3828877597158 L -55.642252774745515,53.3828877597158 M -68.43778501373639,-141.732 L -73.47524157501469,-126.22830287211835 L -55.642252774745515,-126.22830287211838 L -50.60479621346722,-141.732 L -68.43778501373639,-141.732 L -68.43778501373639,-141.732 M -50.60479621346722,141.732 L -55.642252774745515,126.22830287211838 L -73.47524157501469,126.22830287211835 L -68.43778501373639,141.732 L -50.60479621346722,141.732 L -50.60479621346722,141.732 M -72.36067977499788,-122.79803436904216 L -57.93348877508198,-112.3160665479471 L -40.10049997481279,-112.3160665479471 L -54.527690974728685,-122.79803436904216 L -72.36067977499788,-122.79803436904216 L -72.36067977499788,-122.79803436904216 M -40.10049997481279,-67.29512408388709 L -57.93348877508198,-67.29512408388707 L -72.36067977499788,-56.81315626279198 L -54.527690974728685,-56.81315626279199 L -40.10049997481279,-67.29512408388709 L -40.10049997481279,-67.29512408388709 M -72.36067977499788,56.81315626279198 L -57.93348877508198,67.29512408388707 L -40.10049997481279,67.29512408388709 L -54.527690974728685,56.81315626279199 L -72.36067977499788,56.81315626279198 L -72.36067977499788,56.81315626279198 M -40.10049997481279,112.3160665479471 L -57.93348877508198,112.3160665479471 L -72.36067977499788,122.79803436904216 L -54.527690974728685,122.79803436904216 L -40.10049997481279,112.3160665479471 L -40.10049997481279,112.3160665479471 M -33.212129225086194,-22.510471232030024 L -47.63932022500208,-32.992439053125096 L -65.47230902527127,-32.99243905312508 L -51.04511802535539,-22.510471232030017 L -33.212129225086194,-22.510471232030024 L -33.212129225086194,-22.510471232030024 M -65.47230902527127,32.99243905312508 L -47.63932022500208,32.992439053125096 L -33.212129225086194,22.510471232030024 L -51.04511802535539,22.510471232030017 L -65.47230902527127,32.99243905312508 L -65.47230902527127,32.99243905312508 M -49.93055622533856,-19.08020272895383 L -55.44125282511986,-2.120022525439314 L -37.60826402485067,-2.120022525439314 L -32.09756742506937,-19.08020272895383 L -49.93055622533856,-19.08020272895383 L -49.93055622533856,-19.08020272895383 M -37.60826402485067,2.120022525439314 L -55.44125282511986,2.120022525439314 L -49.93055622533856,19.08020272895383 L -32.09756742506937,19.08020272895383 L -37.60826402485067,2.120022525439314 L -37.60826402485067,2.120022525439314 M -37.60826402485065,-108.88579804487091 L -55.44125282511984,-108.88579804487091 L -49.93055622533856,-91.92561784135643 L -32.097567425069364,-91.92561784135641 L -37.60826402485065,-108.88579804487091 L -37.60826402485065,-108.88579804487091 M -49.93055622533856,-87.68557279047779 L -55.44125282511984,-70.72539258696327 L -37.60826402485065,-70.72539258696328 L -32.097567425069364,-87.68557279047779 L -49.93055622533856,-87.68557279047779 L -49.93055622533856,-87.68557279047779 M -37.60826402485065,70.72539258696328 L -55.44125282511984,70.72539258696327 L -49.93055622533856,87.68557279047779 L -32.097567425069364,87.68557279047779 L -37.60826402485065,70.72539258696328 L -37.60826402485065,70.72539258696328 M -49.93055622533856,91.92561784135643 L -55.44125282511984,108.88579804487091 L -37.60826402485065,108.88579804487091 L -32.097567425069364,91.92561784135641 L -49.93055622533856,91.92561784135643 L -49.93055622533856,91.92561784135643 M -51.60973029972238,-54.693133737352696 L -46.09903369994109,-37.73295353383818 L -31.671842700025202,-48.21492135493325 L -37.182539299806486,-65.17510155844778 L -51.60973029972238,-54.693133737352696 L -51.60973029972238,-54.693133737352696 M -31.671842700025202,48.21492135493325 L -46.09903369994109,37.73295353383818 L -51.60973029972238,54.693133737352696 L -37.182539299806486,65.17510155844778 L -31.671842700025202,48.21492135493325 L -31.671842700025202,48.21492135493325 M -46.14654901339992,-141.732 L -51.609730299722365,-124.9180568944815 L -37.182539299806486,-114.43608907338641 L -31.671842700025202,-131.3962692769009 L -45.897755602157225,-141.732 L -46.14654901339992,-141.732 L -46.14654901339992,-141.732 M -45.897755602157225,141.732 L -31.671842700025202,131.3962692769009 L -37.182539299806486,114.43608907338641 L -51.609730299722365,124.9180568944815 L -46.14654901339992,141.732 L -45.897755602157225,141.732 L -45.897755602157225,141.732 M -29.179606750063062,16.960180203514515 L -23.668910150281782,0.0 L -29.179606750063073,-16.960180203514515 L -34.690303349844356,0.0 L -29.179606750063062,16.960180203514515 L -29.179606750063062,16.960180203514515 M -29.17960675006306,-44.784652851857054 L -43.606797749978945,-34.30268503076198 L -29.179606750063066,-23.820717209666903 L -14.752415750147176,-34.302685030761985 L -29.17960675006306,-44.784652851857054 L -29.17960675006306,-44.784652851857054 M -29.179606750063066,23.820717209666903 L -43.606797749978945,34.30268503076198 L -29.17960675006306,44.784652851857054 L -14.752415750147176,34.302685030761985 L -29.179606750063066,23.820717209666903 L -29.179606750063066,23.820717209666903 M -38.68416010219932,-141.732 L -29.17960675006306,-134.8265377799771 L -19.6750533979268,-141.732 L -38.68416010219932,-141.732 L -38.68416010219932,-141.732 M -19.6750533979268,141.732 L -29.17960675006306,134.8265377799771 L -38.68416010219932,141.732 L -19.6750533979268,141.732 L -19.6750533979268,141.732 M -13.839132047914212,-141.732 L -28.065044950046232,-131.3962692769009 L -33.57574154982752,-114.43608907338641 L -19.14855054991164,-124.91805689448148 L -13.685369263589195,-141.732 L -13.839132047914212,-141.732 L -13.839132047914212,-141.732 M -13.637853950130356,-103.71783164008836 L -19.14855054991164,-120.67801184360286 L -33.57574154982752,-110.19604402250779 L -28.065044950046232,-93.2358638189933 L -13.637853950130356,-103.71783164008836 L -13.637853950130356,-103.71783164008836 M -33.57574154982753,-69.4151466093264 L -19.148550549911636,-58.933178788231324 L -13.637853950130353,-75.89335899174583 L -28.065044950046232,-86.37532681284091 L -33.57574154982753,-69.4151466093264 L -33.57574154982753,-69.4151466093264 M -13.637853950130356,-37.73295353383818 L -19.148550549911636,-54.693133737352696 L -33.57574154982752,-65.17510155844778 L -28.065044950046232,-48.21492135493325 L -13.637853950130356,-37.73295353383818 L -13.637853950130356,-37.73295353383818 M -33.57574154982752,65.17510155844778 L -19.148550549911636,54.693133737352696 L -13.637853950130356,37.73295353383818 L -28.065044950046232,48.21492135493325 L -33.57574154982752,65.17510155844778 L -33.57574154982752,65.17510155844778 M -13.637853950130353,75.89335899174583 L -19.148550549911636,58.933178788231324 L -33.57574154982753,69.4151466093264 L -28.065044950046232,86.37532681284091 L -13.637853950130353,75.89335899174583 L -13.637853950130353,75.89335899174583 M -33.57574154982752,110.19604402250779 L -19.14855054991164,120.67801184360286 L -13.637853950130356,103.71783164008836 L -28.065044950046232,93.2358638189933 L -33.57574154982752,110.19604402250779 L -33.57574154982752,110.19604402250779 M -13.685369263589195,141.732 L -19.14855054991164,124.91805689448148 L -33.57574154982752,114.43608907338641 L -28.065044950046232,131.3962692769009 L -13.839132047914212,141.732 L -13.685369263589195,141.732 L -13.685369263589195,141.732 M -26.68737080010092,-20.390448706590707 L -21.176674200319635,-3.430268503076198 L -6.749483200403748,-13.912236324171278 L -12.260179800185032,-30.87241652768579 L -26.68737080010092,-20.390448706590707 L -26.68737080010092,-20.390448706590707 M -6.749483200403748,13.912236324171278 L -21.176674200319635,3.430268503076198 L -26.68737080010092,20.390448706590707 L -12.260179800185032,30.87241652768579 L -6.749483200403748,13.912236324171278 L -6.749483200403748,13.912236324171278 M -11.145618000168213,-141.06846055019358 L -16.656314599949496,-124.10828034667907 L -11.14561800016821,-107.14810014316456 L -5.634921400386927,-124.10828034667907 L -11.145618000168213,-141.06846055019358 L -11.145618000168213,-141.06846055019358 M -11.14561800016821,107.14810014316456 L -16.656314599949496,124.10828034667907 L -11.145618000168213,141.06846055019358 L -5.634921400386927,124.10828034667907 L -11.14561800016821,107.14810014316456 L -11.14561800016821,107.14810014316456 M -11.145618000168206,-72.46309048866964 L -16.656314599949493,-55.502910285155124 L -11.145618000168206,-38.54273008164061 L -5.634921400386921,-55.502910285155124 L -11.145618000168206,-72.46309048866964 L -11.145618000168206,-72.46309048866964 M -11.145618000168206,38.54273008164061 L -16.656314599949493,55.502910285155124 L -11.145618000168206,72.46309048866964 L -5.634921400386921,55.502910285155124 L -11.145618000168206,38.54273008164061 L -11.145618000168206,38.54273008164061 M -11.145618000168206,-79.32362749482202 L 3.281572999747676,-89.80559531591709 L -11.145618000168206,-100.28756313701216 L -25.57280900008409,-89.8055953159171 L -11.145618000168206,-79.32362749482202 L -11.145618000168206,-79.32362749482202 M -11.145618000168206,100.28756313701216 L 3.281572999747676,89.80559531591709 L -11.145618000168206,79.32362749482202 L -25.57280900008409,89.8055953159171 L -11.145618000168206,100.28756313701216 L -11.145618000168206,100.28756313701216 M -4.257247250441605,-10.48196782109508 L -18.68443825035749,0.0 L -4.257247250441603,10.48196782109508 L 10.169943749474282,0.0 L -4.257247250441605,-10.48196782109508 L -4.257247250441605,-10.48196782109508 M 11.284505549491106,-3.4302685030761983 L 5.77380894970982,-20.390448706590714 L -8.653382050206067,-30.872416527685793 L -3.1426854504247785,-13.912236324171278 L 11.284505549491106,-3.4302685030761983 L 11.284505549491106,-3.4302685030761983 M -8.653382050206067,30.872416527685793 L 5.77380894970982,20.390448706590714 L 11.284505549491106,3.4302685030761983 L -3.1426854504247785,13.912236324171278 L -8.653382050206067,30.872416527685793 L -8.653382050206067,30.872416527685793 M -7.754417286658905,-141.732 L -2.716960725380617,-126.22830287211838 L 15.116028074888579,-126.22830287211838 L 10.07857151361029,-141.732 L -7.754417286658905,-141.732 L -7.754417286658905,-141.732 M 10.07857151361029,141.732 L 15.116028074888579,126.22830287211838 L -2.716960725380617,126.22830287211838 L -7.754417286658905,141.732 L 10.07857151361029,141.732 L 10.07857151361029,141.732 M 9.605331475107294,-105.02807761772524 L 15.116028074888579,-121.98825782123976 L -2.7169607253806145,-121.98825782123978 L -8.2276573251619,-105.02807761772524 L 9.605331475107294,-105.02807761772524 L 9.605331475107294,-105.02807761772524 M -2.7169607253806145,121.98825782123978 L 15.116028074888579,121.98825782123976 L 9.605331475107294,105.02807761772524 L -8.2276573251619,105.02807761772524 L -2.7169607253806145,121.98825782123978 L -2.7169607253806145,121.98825782123978 M 9.605331475107295,-36.4227075562013 L 15.116028074888582,-53.382887759715814 L -2.7169607253806114,-53.382887759715814 L -8.227657325161898,-36.4227075562013 L 9.605331475107295,-36.4227075562013 L 9.605331475107295,-36.4227075562013 M -2.7169607253806114,53.382887759715814 L 15.116028074888582,53.382887759715814 L 9.605331475107295,36.4227075562013 L -8.227657325161898,36.4227075562013 L -2.7169607253806114,53.382887759715814 L -2.7169607253806114,53.382887759715814 M -2.716960725380612,-57.62293281059444 L 15.116028074888582,-57.62293281059444 L 9.605331475107299,-74.58311301410895 L -8.227657325161896,-74.58311301410895 L -2.716960725380612,-57.62293281059444 L -2.716960725380612,-57.62293281059444 M 9.605331475107299,74.58311301410895 L 15.116028074888582,57.62293281059444 L -2.716960725380612,57.62293281059444 L -8.227657325161896,74.58311301410895 L 9.605331475107299,74.58311301410895 L 9.605331475107299,74.58311301410895 M -7.113095525145075,-101.59780911464905 L 7.3140954747708085,-91.11584129355397 L 25.147084275040005,-91.11584129355397 L 10.719893275124118,-101.59780911464905 L -7.113095525145075,-101.59780911464905 L -7.113095525145075,-101.59780911464905 M -7.113095525145073,-32.9924390531251 L 7.3140954747708085,-22.510471232030028 L 25.147084275040005,-22.51047123203002 L 10.71989327512412,-32.9924390531251 L -7.113095525145073,-32.9924390531251 L -7.113095525145073,-32.9924390531251 M 25.147084275040005,22.51047123203002 L 7.3140954747708085,22.510471232030028 L -7.113095525145073,32.9924390531251 L 10.71989327512412,32.9924390531251 L 25.147084275040005,22.51047123203002 L 25.147084275040005,22.51047123203002 M 25.147084275040005,91.11584129355397 L 7.3140954747708085,91.11584129355397 L -7.113095525145075,101.59780911464905 L 10.719893275124118,101.59780911464905 L 25.147084275040005,91.11584129355397 L 25.147084275040005,91.11584129355397 M 25.147084275039997,-88.49534933828019 L 7.314095474770809,-88.49534933828019 L -7.113095525145066,-78.01338151718512 L 10.71989327512412,-78.01338151718514 L 25.147084275039997,-88.49534933828019 L 25.147084275039997,-88.49534933828019 M -7.113095525145066,78.01338151718512 L 7.314095474770809,88.49534933828019 L 25.147084275039997,88.49534933828019 L 10.71989327512412,78.01338151718514 L -7.113095525145066,78.01338151718512 L -7.113095525145066,78.01338151718512 M 27.639320225002155,-19.08020272895383 L 9.806331424732953,-19.08020272895383 L 15.31702802451424,-2.120022525439314 L 33.15001682478344,-2.120022525439314 L 27.639320225002155,-19.08020272895383 L 27.639320225002155,-19.08020272895383 M 15.31702802451424,2.120022525439314 L 9.806331424732953,19.08020272895383 L 27.639320225002155,19.08020272895383 L 33.15001682478344,2.120022525439314 L 15.31702802451424,2.120022525439314 L 15.31702802451424,2.120022525439314 M 13.685369263589276,-141.732 L 19.14855054991171,-124.91805689448151 L 33.57574154982759,-114.43608907338643 L 28.065044950046303,-131.39626927690094 L 13.839132047914322,-141.732 L 13.685369263589276,-141.732 L 13.685369263589276,-141.732 M 33.57574154982759,-110.19604402250782 L 19.14855054991171,-120.67801184360287 L 13.637853950130427,-103.71783164008836 L 28.065044950046303,-93.23586381899328 L 33.57574154982759,-110.19604402250782 L 33.57574154982759,-110.19604402250782 M 13.637853950130427,-75.89335899174583 L 19.148550549911715,-58.933178788231324 L 33.57574154982759,-69.4151466093264 L 28.065044950046303,-86.3753268128409 L 13.637853950130427,-75.89335899174583 L 13.637853950130427,-75.89335899174583 M 33.57574154982759,69.4151466093264 L 19.148550549911715,58.933178788231324 L 13.637853950130427,75.89335899174583 L 28.065044950046303,86.3753268128409 L 33.57574154982759,69.4151466093264 L 33.57574154982759,69.4151466093264 M 13.637853950130427,103.71783164008836 L 19.14855054991171,120.67801184360287 L 33.57574154982759,110.19604402250782 L 28.065044950046303,93.23586381899328 L 13.637853950130427,103.71783164008836 L 13.637853950130427,103.71783164008836 M 13.839132047914322,141.732 L 28.065044950046303,131.39626927690094 L 33.57574154982759,114.43608907338643 L 19.14855054991171,124.91805689448151 L 13.685369263589276,141.732 L 13.839132047914322,141.732 L 13.839132047914322,141.732 M 33.575741549827605,-41.59067396098384 L 19.148550549911718,-52.07264178207893 L 13.637853950130431,-35.112461578564414 L 28.065044950046317,-24.63049375746933 L 33.575741549827605,-41.59067396098384 L 33.575741549827605,-41.59067396098384 M 13.637853950130431,35.112461578564414 L 19.148550549911718,52.07264178207893 L 33.575741549827605,41.59067396098384 L 28.065044950046317,24.63049375746933 L 13.637853950130431,35.112461578564414 L 13.637853950130431,35.112461578564414 M 19.675053397926877,-141.732 L 29.179606750063126,-134.82653777997712 L 38.68416010219935,-141.732 L 19.675053397926877,-141.732 L 19.675053397926877,-141.732 M 38.68416010219935,141.732 L 29.179606750063126,134.82653777997712 L 19.675053397926877,141.732 L 38.68416010219935,141.732 L 38.68416010219935,141.732 M 36.06797749978974,-65.98487810625019 L 21.64078649987386,-55.502910285155124 L 36.067977499789755,-45.02094246406004 L 50.49516849970563,-55.50291028515511 L 36.06797749978974,-65.98487810625019 L 36.06797749978974,-65.98487810625019 M 36.067977499789755,45.02094246406004 L 21.64078649987386,55.502910285155124 L 36.06797749978974,65.98487810625019 L 50.49516849970563,55.50291028515511 L 36.067977499789755,45.02094246406004 L 36.067977499789755,45.02094246406004 M 45.8977556021573,-141.732 L 31.671842700025273,-131.39626927690094 L 37.18253929980656,-114.43608907338641 L 51.609730299722436,-124.91805689448147 L 46.14654901339999,-141.732 L 45.8977556021573,-141.732 L 45.8977556021573,-141.732 M 46.14654901339999,141.732 L 51.609730299722436,124.91805689448147 L 37.18253929980656,114.43608907338641 L 31.671842700025273,131.39626927690094 L 45.8977556021573,141.732 L 46.14654901339999,141.732 L 46.14654901339999,141.732 M 51.60973029972245,-58.93317878823131 L 46.09903369994116,-75.89335899174581 L 31.671842700025273,-86.37532681284088 L 37.182539299806564,-69.41514660932638 L 51.60973029972245,-58.93317878823131 L 51.60973029972245,-58.93317878823131 M 31.671842700025273,86.37532681284088 L 46.09903369994116,75.89335899174581 L 51.60973029972245,58.93317878823131 L 37.182539299806564,69.41514660932638 L 31.671842700025273,86.37532681284088 L 31.671842700025273,86.37532681284088 M 31.671842700025287,-24.63049375746933 L 46.09903369994116,-35.112461578564414 L 51.60973029972245,-52.07264178207894 L 37.18253929980657,-41.59067396098385 L 31.671842700025287,-24.63049375746933 L 31.671842700025287,-24.63049375746933 M 51.60973029972245,-13.912236324171273 L 46.09903369994116,-30.87241652768579 L 31.671842700025287,-20.39044870659071 L 37.18253929980657,-3.430268503076198 L 51.60973029972245,-13.912236324171273 L 51.60973029972245,-13.912236324171273 M 31.671842700025287,20.39044870659071 L 46.09903369994116,30.87241652768579 L 51.60973029972245,13.912236324171273 L 37.18253929980657,3.430268503076198 L 31.671842700025287,20.39044870659071 L 31.671842700025287,20.39044870659071 M 51.60973029972245,52.07264178207894 L 46.09903369994116,35.112461578564414 L 31.671842700025287,24.63049375746933 L 37.18253929980657,41.59067396098385 L 51.60973029972245,52.07264178207894 L 51.60973029972245,52.07264178207894 M 49.93055622533863,-91.9256178413564 L 55.44125282511991,-108.88579804487092 L 37.60826402485073,-108.88579804487094 L 32.097567425069435,-91.9256178413564 L 49.93055622533863,-91.9256178413564 L 49.93055622533863,-91.9256178413564 M 37.60826402485073,108.88579804487094 L 55.44125282511991,108.88579804487092 L 49.93055622533863,91.9256178413564 L 32.097567425069435,91.9256178413564 L 37.60826402485073,108.88579804487094 L 37.60826402485073,108.88579804487094 M 33.21212922508626,-88.49534933828019 L 47.63932022500215,-78.01338151718512 L 65.47230902527134,-78.01338151718512 L 51.04511802535545,-88.49534933828019 L 33.21212922508626,-88.49534933828019 L 33.21212922508626,-88.49534933828019 M 65.47230902527134,78.01338151718512 L 47.63932022500215,78.01338151718512 L 33.21212922508626,88.49534933828019 L 51.04511802535545,88.49534933828019 L 65.47230902527134,78.01338151718512 L 65.47230902527134,78.01338151718512 M 40.10049997481286,-112.3160665479471 L 57.933488775082054,-112.31606654794712 L 72.36067977499795,-122.79803436904218 L 54.527690974728756,-122.79803436904218 L 40.10049997481286,-112.3160665479471 L 40.10049997481286,-112.3160665479471 M 72.36067977499795,122.79803436904218 L 57.933488775082054,112.31606654794712 L 40.10049997481286,112.3160665479471 L 54.527690974728756,122.79803436904218 L 72.36067977499795,122.79803436904218 L 72.36067977499795,122.79803436904218 M 40.100499974812884,-1.3102459776368842 L 57.933488775082076,-1.3102459776368842 L 72.36067977499795,-11.792213798731959 L 54.52769097472876,-11.792213798731959 L 40.100499974812884,-1.3102459776368842 L 40.100499974812884,-1.3102459776368842 M 72.36067977499795,11.792213798731959 L 57.933488775082076,1.3102459776368842 L 40.100499974812884,1.3102459776368842 L 54.52769097472876,11.792213798731959 L 72.36067977499795,11.792213798731959 L 72.36067977499795,11.792213798731959 M 50.604796213467296,-141.732 L 55.64225277474557,-126.22830287211838 L 73.47524157501476,-126.22830287211838 L 68.43778501373647,-141.732 L 50.604796213467296,-141.732 L 50.604796213467296,-141.732 M 68.43778501373647,141.732 L 73.47524157501476,126.22830287211838 L 55.64225277474557,126.22830287211838 L 50.604796213467296,141.732 L 68.43778501373647,141.732 L 68.43778501373647,141.732 M 67.96454497523348,-74.58311301410893 L 50.131556174964295,-74.58311301410893 L 55.64225277474559,-57.62293281059442 L 73.47524157501478,-57.62293281059442 L 67.96454497523348,-74.58311301410893 L 67.96454497523348,-74.58311301410893 M 55.642252774745586,-53.3828877597158 L 50.131556174964295,-36.422707556201296 L 67.9645449752335,-36.42270755620129 L 73.47524157501478,-53.38288775971579 L 55.642252774745586,-53.3828877597158 L 55.642252774745586,-53.3828877597158 M 67.9645449752335,-32.182662505322675 L 50.131556174964295,-32.182662505322675 L 55.642252774745586,-15.222482301808157 L 73.47524157501478,-15.222482301808157 L 67.9645449752335,-32.182662505322675 L 67.9645449752335,-32.182662505322675 M 55.642252774745586,15.222482301808157 L 50.131556174964295,32.182662505322675 L 67.9645449752335,32.182662505322675 L 73.47524157501478,15.222482301808157 L 55.642252774745586,15.222482301808157 L 55.642252774745586,15.222482301808157 M 67.9645449752335,36.42270755620129 L 50.131556174964295,36.422707556201296 L 55.642252774745586,53.3828877597158 L 73.47524157501478,53.38288775971579 L 67.9645449752335,36.42270755620129 L 67.9645449752335,36.42270755620129 M 55.64225277474559,57.62293281059442 L 50.131556174964295,74.58311301410893 L 67.96454497523348,74.58311301410893 L 73.47524157501478,57.62293281059442 L 55.64225277474559,57.62293281059442 L 55.64225277474559,57.62293281059442 M 73.90096630005894,-97.09358424613897 L 59.473775300143046,-107.57555206723404 L 53.96307870036176,-90.61537186371952 L 68.39026970027766,-80.13340404262445 L 73.90096630005894,-97.09358424613897 L 73.90096630005894,-97.09358424613897 M 53.96307870036176,90.61537186371952 L 59.473775300143046,107.57555206723404 L 73.90096630005894,97.09358424613897 L 68.39026970027766,80.13340404262445 L 53.96307870036176,90.61537186371952 L 53.96307870036176,90.61537186371952 M 72.04458276371544,-141.732 L 76.39320225002105,-128.3483253975577 L 80.74182173632667,-141.732 L 72.04458276371544,-141.732 L 72.04458276371544,-141.732 M 80.74182173632667,141.732 L 76.39320225002105,128.3483253975577 L 72.04458276371544,141.732 L 80.74182173632667,141.732 L 80.74182173632667,141.732 M 76.39320225002106,-121.4877883914053 L 61.96601125010519,-111.00582057031023 L 76.39320225002109,-100.52385274921514 L 90.82039324993696,-111.00582057031022 L 76.39320225002106,-121.4877883914053 L 76.39320225002106,-121.4877883914053 M 76.39320225002109,100.52385274921514 L 61.96601125010519,111.00582057031023 L 76.39320225002106,121.4877883914053 L 90.82039324993696,111.00582057031022 L 76.39320225002109,100.52385274921514 L 76.39320225002109,100.52385274921514 M 76.39320225002109,-17.34250482724747 L 81.90389884980239,-34.30268503076198 L 76.39320225002109,-51.26286523427648 L 70.8825056502398,-34.30268503076198 L 76.39320225002109,-17.34250482724747 L 76.39320225002109,-17.34250482724747 M 76.39320225002109,-10.481967821095076 L 61.96601125010521,0.0 L 76.39320225002109,10.481967821095076 L 90.82039324993698,0.0 L 76.39320225002109,-10.481967821095076 L 76.39320225002109,-10.481967821095076 M 76.39320225002109,51.26286523427648 L 81.90389884980239,34.30268503076198 L 76.39320225002109,17.34250482724747 L 70.8825056502398,34.30268503076198 L 76.39320225002109,51.26286523427648 L 76.39320225002109,51.26286523427648 M 71.99706745025662,-80.13340404262443 L 86.4242584501725,-90.61537186371952 L 91.9349550499538,-107.57555206723403 L 77.5077640500379,-97.09358424613895 L 71.99706745025662,-80.13340404262443 L 71.99706745025662,-80.13340404262443 M 91.9349550499538,-69.41514660932638 L 86.4242584501725,-86.37532681284088 L 71.99706745025662,-75.89335899174581 L 77.5077640500379,-58.9331787882313 L 91.9349550499538,-69.41514660932638 L 91.9349550499538,-69.41514660932638 M 71.99706745025662,75.89335899174581 L 86.4242584501725,86.37532681284088 L 91.9349550499538,69.41514660932638 L 77.5077640500379,58.9331787882313 L 71.99706745025662,75.89335899174581 L 71.99706745025662,75.89335899174581 M 91.9349550499538,107.57555206723403 L 86.4242584501725,90.61537186371952 L 71.99706745025662,80.13340404262443 L 77.5077640500379,97.09358424613895 L 91.9349550499538,107.57555206723403 L 91.9349550499538,107.57555206723403 M 84.34861948630565,-141.732 L 78.8854381999832,-124.91805689448147 L 93.31262919989909,-114.43608907338641 L 98.82332579968038,-131.39626927690094 L 84.59741289754835,-141.732 L 84.34861948630565,-141.732 L 84.34861948630565,-141.732 M 84.59741289754835,141.732 L 98.82332579968038,131.39626927690094 L 93.31262919989909,114.43608907338641 L 78.8854381999832,124.91805689448147 L 84.34861948630565,141.732 L 84.59741289754835,141.732 L 84.59741289754835,141.732 M 78.88543819998327,-52.07264178207891 L 84.39613479976452,-35.11246157856441 L 98.82332579968039,-24.63049375746933 L 93.31262919989913,-41.590673960983835 L 78.88543819998327,-52.07264178207891 L 78.88543819998327,-52.07264178207891 M 98.82332579968042,-20.390448706590703 L 84.39613479976452,-30.87241652768578 L 78.88543819998324,-13.912236324171273 L 93.31262919989913,-3.430268503076197 L 98.82332579968042,-20.390448706590703 L 98.82332579968042,-20.390448706590703 M 78.88543819998324,13.912236324171273 L 84.39613479976452,30.87241652768578 L 98.82332579968042,20.390448706590703 L 93.31262919989913,3.430268503076197 L 78.88543819998324,13.912236324171273 L 78.88543819998324,13.912236324171273 M 98.82332579968039,24.63049375746933 L 84.39613479976452,35.11246157856441 L 78.88543819998327,52.07264178207891 L 93.31262919989913,41.590673960983835 L 98.82332579968039,24.63049375746933 L 98.82332579968039,24.63049375746933 M 94.42719099991592,-106.7657755194316 L 88.91649440013465,-89.80559531591709 L 94.42719099991595,-72.84541511240258 L 99.93788759969722,-89.80559531591709 L 94.42719099991592,-106.7657755194316 L 94.42719099991592,-106.7657755194316 M 94.42719099991595,-45.020942464060035 L 108.85438199983182,-55.502910285155124 L 94.42719099991592,-65.98487810625019 L 80.00000000000006,-55.5029102851551 L 94.42719099991595,-45.020942464060035 L 94.42719099991595,-45.020942464060035 M 94.42719099991592,65.98487810625019 L 108.85438199983182,55.502910285155124 L 94.42719099991595,45.020942464060035 L 80.00000000000006,55.5029102851551 L 94.42719099991592,65.98487810625019 L 94.42719099991592,65.98487810625019 M 94.42719099991595,72.84541511240258 L 88.91649440013465,89.80559531591709 L 94.42719099991592,106.7657755194316 L 99.93788759969722,89.80559531591709 L 94.42719099991595,72.84541511240258 L 94.42719099991595,72.84541511240258 M 91.81100839750628,-141.732 L 101.31556174964251,-134.8265377799771 L 110.82011510177878,-141.732 L 91.81100839750628,-141.732 L 91.81100839750628,-141.732 M 110.82011510177878,141.732 L 101.31556174964251,134.8265377799771 L 91.81100839750628,141.732 L 110.82011510177878,141.732 L 110.82011510177878,141.732 M 116.65603645179137,-141.732 L 102.43012354965934,-131.39626927690094 L 96.91942694987806,-114.43608907338641 L 111.34661794979394,-124.91805689448147 L 116.80979923611638,-141.732 L 116.65603645179137,-141.732 L 116.65603645179137,-141.732 M 116.80979923611638,141.732 L 111.34661794979394,124.91805689448147 L 96.91942694987806,114.43608907338641 L 102.43012354965934,131.39626927690094 L 116.65603645179137,141.732 L 116.80979923611638,141.732 L 116.80979923611638,141.732 M 116.85731454957525,-35.11246157856441 L 111.34661794979397,-52.07264178207893 L 96.91942694987807,-41.59067396098385 L 102.43012354965936,-24.63049375746933 L 116.85731454957525,-35.11246157856441 L 116.85731454957525,-35.11246157856441 M 96.91942694987807,41.59067396098385 L 111.34661794979397,52.07264178207893 L 116.85731454957525,35.11246157856441 L 102.43012354965936,24.63049375746933 L 96.91942694987807,41.59067396098385 L 96.91942694987807,41.59067396098385 M 102.85584827470353,-91.9256178413564 L 120.6888370749727,-91.92561784135641 L 115.17814047519141,-108.88579804487094 L 97.34515167492222,-108.88579804487091 L 102.85584827470353,-91.9256178413564 L 102.85584827470353,-91.9256178413564 M 115.17814047519141,-70.7253925869633 L 120.6888370749727,-87.68557279047779 L 102.85584827470353,-87.68557279047778 L 97.34515167492222,-70.72539258696327 L 115.17814047519141,-70.7253925869633 L 115.17814047519141,-70.7253925869633 M 102.85584827470353,87.68557279047778 L 120.6888370749727,87.68557279047779 L 115.17814047519141,70.7253925869633 L 97.34515167492222,70.72539258696327 L 102.85584827470353,87.68557279047778 L 102.85584827470353,87.68557279047778 M 115.17814047519141,108.88579804487094 L 120.6888370749727,91.92561784135641 L 102.85584827470353,91.9256178413564 L 97.34515167492222,108.88579804487091 L 115.17814047519141,108.88579804487094 L 115.17814047519141,108.88579804487094 M 115.17814047519146,-2.120022525439313 L 120.68883707497272,-19.08020272895382 L 102.85584827470353,-19.08020272895382 L 97.34515167492226,-2.120022525439313 L 115.17814047519146,-2.120022525439313 L 115.17814047519146,-2.120022525439313 M 102.85584827470353,19.08020272895382 L 120.68883707497272,19.08020272895382 L 115.17814047519146,2.120022525439313 L 97.34515167492226,2.120022525439313 L 102.85584827470353,19.08020272895382 L 102.85584827470353,19.08020272895382 M 130.7198932751241,-122.79803436904216 L 112.88690447485493,-122.79803436904216 L 98.45971347493905,-112.3160665479471 L 116.29270227520824,-112.3160665479471 L 130.7198932751241,-122.79803436904216 L 130.7198932751241,-122.79803436904216 M 98.45971347493905,112.3160665479471 L 112.88690447485493,122.79803436904216 L 130.7198932751241,122.79803436904216 L 116.29270227520824,112.3160665479471 L 98.45971347493905,112.3160665479471 L 98.45971347493905,112.3160665479471 M 98.4597134749391,-67.29512408388709 L 112.88690447485494,-56.813156262792006 L 130.71989327512412,-56.81315626279199 L 116.29270227520826,-67.29512408388707 L 98.4597134749391,-67.29512408388709 L 98.4597134749391,-67.29512408388709 M 130.71989327512412,56.81315626279199 L 112.88690447485494,56.813156262792006 L 98.4597134749391,67.29512408388709 L 116.29270227520826,67.29512408388707 L 130.71989327512412,56.81315626279199 L 130.71989327512412,56.81315626279199 M 105.34808422466568,-22.510471232030017 L 123.18107302493488,-22.510471232030017 L 137.60826402485074,-32.992439053125096 L 119.77527522458158,-32.992439053125096 L 105.34808422466568,-22.510471232030017 L 105.34808422466568,-22.510471232030017 M 137.60826402485074,32.992439053125096 L 123.18107302493488,22.510471232030017 L 105.34808422466568,22.510471232030017 L 119.77527522458158,32.992439053125096 L 137.60826402485074,32.992439053125096 L 137.60826402485074,32.992439053125096 M 120.41659698609537,-141.732 L 115.37914042481708,-126.22830287211835 L 133.21212922508624,-126.22830287211838 L 138.24958578636455,-141.732 L 120.41659698609537,-141.732 L 120.41659698609537,-141.732 M 138.24958578636455,141.732 L 133.21212922508624,126.22830287211838 L 115.37914042481708,126.22830287211835 L 120.41659698609537,141.732 L 138.24958578636455,141.732 L 138.24958578636455,141.732 M 133.21212922508624,-53.382887759715814 L 115.3791404248171,-53.382887759715814 L 120.88983702459839,-36.42270755620129 L 138.72282582486756,-36.42270755620129 L 133.21212922508624,-53.382887759715814 L 133.21212922508624,-53.382887759715814 M 120.88983702459839,36.42270755620129 L 115.3791404248171,53.382887759715814 L 133.21212922508624,53.382887759715814 L 138.72282582486756,36.42270755620129 L 120.88983702459839,36.42270755620129 L 120.88983702459839,36.42270755620129 M 119.21066295021456,-110.19604402250779 L 124.72135954999584,-93.2358638189933 L 139.1485505499117,-103.71783164008836 L 133.63785395013042,-120.67801184360286 L 119.21066295021456,-110.19604402250779 L 119.21066295021456,-110.19604402250779 M 139.1485505499117,-75.89335899174584 L 124.72135954999584,-86.37532681284091 L 119.21066295021456,-69.41514660932638 L 133.63785395013042,-58.93317878823131 L 139.1485505499117,-75.89335899174584 L 139.1485505499117,-75.89335899174584 M 119.21066295021456,69.41514660932638 L 124.72135954999584,86.37532681284091 L 139.1485505499117,75.89335899174584 L 133.63785395013042,58.93317878823131 L 119.21066295021456,69.41514660932638 L 119.21066295021456,69.41514660932638 M 139.1485505499117,103.71783164008836 L 124.72135954999584,93.2358638189933 L 119.21066295021456,110.19604402250779 L 133.63785395013042,120.67801184360286 L 139.1485505499117,103.71783164008836 L 139.1485505499117,103.71783164008836 M 139.1485505499117,-30.87241652768578 L 124.72135954999585,-20.390448706590703 L 119.2106629502146,-3.430268503076197 L 133.63785395013045,-13.912236324171273 L 139.1485505499117,-30.87241652768578 L 139.1485505499117,-30.87241652768578 M 119.2106629502146,3.430268503076197 L 124.72135954999585,20.390448706590703 L 139.1485505499117,30.87241652768578 L 133.63785395013045,13.912236324171273 L 119.2106629502146,3.430268503076197 L 119.2106629502146,3.430268503076197 M 134.75241575014726,10.481967821095076 L 149.17960675006316,0.0 L 134.75241575014732,-10.481967821095076 L 120.32522475023141,0.0 L 134.75241575014726,10.481967821095076 L 134.75241575014726,10.481967821095076 M 141.64078649987385,-100.28756313701214 L 127.21359549995798,-89.8055953159171 L 141.64078649987385,-79.32362749482203 L 156.06797749978972,-89.80559531591709 L 141.64078649987385,-100.28756313701214 L 141.64078649987385,-100.28756313701214 M 141.64078649987385,79.32362749482203 L 127.21359549995798,89.8055953159171 L 141.64078649987385,100.28756313701214 L 156.06797749978972,89.80559531591709 L 141.64078649987385,79.32362749482203 L 141.64078649987385,79.32362749482203 M 142.70783298643184,-141.732 L 137.24465170010942,-124.9180568944815 L 151.6718427000253,-114.4360890733864 L 157.18253929980656,-131.3962692769009 L 142.95662639767454,-141.732 L 142.70783298643184,-141.732 L 142.70783298643184,-141.732 M 157.18253929980654,-93.23586381899328 L 151.6718427000253,-110.19604402250778 L 137.24465170010944,-120.67801184360285 L 142.75534829989067,-103.71783164008836 L 157.18253929980654,-93.23586381899328 L 157.18253929980654,-93.23586381899328 M 137.2446517001094,-58.93317878823131 L 151.6718427000253,-69.4151466093264 L 157.1825392998066,-86.37532681284092 L 142.75534829989067,-75.89335899174584 L 137.2446517001094,-58.93317878823131 L 137.2446517001094,-58.93317878823131 M 157.18253929980656,-48.21492135493325 L 151.6718427000253,-65.17510155844778 L 137.24465170010942,-54.693133737352696 L 142.75534829989067,-37.73295353383818 L 157.18253929980656,-48.21492135493325 L 157.18253929980656,-48.21492135493325 M 137.24465170010942,-13.912236324171273 L 151.6718427000253,-3.430268503076197 L 157.18253929980656,-20.390448706590703 L 142.75534829989067,-30.87241652768578 L 137.24465170010942,-13.912236324171273 L 137.24465170010942,-13.912236324171273 M 157.18253929980656,20.390448706590703 L 151.6718427000253,3.430268503076197 L 137.24465170010942,13.912236324171273 L 142.75534829989067,30.87241652768578 L 157.18253929980656,20.390448706590703 L 157.18253929980656,20.390448706590703 M 137.24465170010942,54.693133737352696 L 151.6718427000253,65.17510155844778 L 157.18253929980656,48.21492135493325 L 142.75534829989067,37.73295353383818 L 137.24465170010942,54.693133737352696 L 137.24465170010942,54.693133737352696 M 157.1825392998066,86.37532681284092 L 151.6718427000253,69.4151466093264 L 137.2446517001094,58.93317878823131 L 142.75534829989067,75.89335899174584 L 157.1825392998066,86.37532681284092 L 157.1825392998066,86.37532681284092 M 137.24465170010944,120.67801184360285 L 151.6718427000253,110.19604402250778 L 157.18253929980654,93.23586381899328 L 142.75534829989067,103.71783164008836 L 137.24465170010944,120.67801184360285 L 137.24465170010944,120.67801184360285 M 142.95662639767454,141.732 L 157.18253929980656,131.3962692769009 L 151.6718427000253,114.4360890733864 L 137.24465170010942,124.9180568944815 L 142.70783298643184,141.732 L 142.95662639767454,141.732 L 142.95662639767454,141.732 M 148.79254774768714,-141.732 L 160.10049997481286,-133.51629180234022 L 177.93348877508205,-133.51629180234022 L 166.62553654795633,-141.732 L 148.79254774768714,-141.732 L 148.79254774768714,-141.732 M 145.67330897489697,-35.61293100839886 L 163.50629777516616,-35.61293100839886 L 177.93348877508205,-46.09489882949394 L 160.10049997481286,-46.09489882949394 L 145.67330897489697,-35.61293100839886 L 145.67330897489697,-35.61293100839886 M 177.93348877508203,-22.510471232030017 L 163.50629777516616,-32.992439053125096 L 145.673308974897,-32.992439053125096 L 160.10049997481286,-22.510471232030017 L 177.93348877508203,-22.510471232030017 L 177.93348877508203,-22.510471232030017 M 145.673308974897,32.992439053125096 L 163.50629777516616,32.992439053125096 L 177.93348877508203,22.510471232030017 L 160.10049997481286,22.510471232030017 L 145.673308974897,32.992439053125096 L 145.673308974897,32.992439053125096 M 177.93348877508205,46.09489882949394 L 163.50629777516616,35.61293100839886 L 145.67330897489697,35.61293100839886 L 160.10049997481286,46.09489882949394 L 177.93348877508205,46.09489882949394 L 177.93348877508205,46.09489882949394 M 166.62553654795633,141.732 L 177.93348877508205,133.51629180234022 L 160.10049997481286,133.51629180234022 L 148.79254774768714,141.732 L 166.62553654795633,141.732 L 166.62553654795633,141.732 M 161.21506177482968,-130.08602329926404 L 155.70436517504842,-113.12584309574952 L 173.53735397531761,-113.1258430957495 L 179.0480505750989,-130.086023299264 L 161.21506177482968,-130.08602329926404 L 161.21506177482968,-130.08602329926404 M 173.53735397531761,-108.88579804487088 L 155.70436517504842,-108.8857980448709 L 161.21506177482968,-91.9256178413564 L 179.04805057509884,-91.92561784135638 L 173.53735397531761,-108.88579804487088 L 173.53735397531761,-108.88579804487088 M 161.21506177482968,-87.68557279047778 L 155.70436517504842,-70.72539258696328 L 173.53735397531761,-70.72539258696327 L 179.04805057509884,-87.68557279047775 L 161.21506177482968,-87.68557279047778 L 161.21506177482968,-87.68557279047778 M 173.53735397531761,-66.48534753608466 L 155.70436517504842,-66.48534753608466 L 161.21506177482968,-49.52516733257014 L 179.0480505750989,-49.52516733257014 L 173.53735397531761,-66.48534753608466 L 173.53735397531761,-66.48534753608466 M 161.21506177482968,-19.08020272895382 L 155.70436517504842,-2.120022525439313 L 173.53735397531761,-2.120022525439313 L 179.0480505750989,-19.08020272895382 L 161.21506177482968,-19.08020272895382 L 161.21506177482968,-19.08020272895382 M 173.53735397531761,2.120022525439313 L 155.70436517504842,2.120022525439313 L 161.21506177482968,19.08020272895382 L 179.0480505750989,19.08020272895382 L 173.53735397531761,2.120022525439313 L 173.53735397531761,2.120022525439313 M 161.21506177482968,49.52516733257014 L 155.70436517504842,66.48534753608466 L 173.53735397531761,66.48534753608466 L 179.0480505750989,49.52516733257014 L 161.21506177482968,49.52516733257014 L 161.21506177482968,49.52516733257014 M 173.53735397531761,70.72539258696327 L 155.70436517504842,70.72539258696328 L 161.21506177482968,87.68557279047778 L 179.04805057509884,87.68557279047775 L 173.53735397531761,70.72539258696327 L 173.53735397531761,70.72539258696327 M 161.21506177482968,91.9256178413564 L 155.70436517504842,108.8857980448709 L 173.53735397531761,108.88579804487088 L 179.04805057509884,91.92561784135638 L 161.21506177482968,91.9256178413564 L 161.21506177482968,91.9256178413564 M 173.53735397531761,113.1258430957495 L 155.70436517504842,113.12584309574952 L 161.21506177482968,130.08602329926404 L 179.0480505750989,130.086023299264 L 173.53735397531761,113.1258430957495 L 173.53735397531761,113.1258430957495 M 181.96601125010514,-94.0456403667957 L 187.47670784988648,-111.00582057031019 L 181.9660112501052,-127.9660007738247 L 176.4553146503239,-111.00582057031019 L 181.96601125010514,-94.0456403667957 L 181.96601125010514,-94.0456403667957 M 181.9660112501052,-51.64518985800945 L 187.47670784988648,-68.60537006152396 L 181.96601125010514,-85.56555026503845 L 176.4553146503239,-68.60537006152396 L 181.9660112501052,-51.64518985800945 L 181.9660112501052,-51.64518985800945 M 181.96601125010514,85.56555026503845 L 187.47670784988648,68.60537006152396 L 181.9660112501052,51.64518985800945 L 176.4553146503239,68.60537006152396 L 181.96601125010514,85.56555026503845 L 181.96601125010514,85.56555026503845 M 181.9660112501052,127.9660007738247 L 187.47670784988648,111.00582057031019 L 181.96601125010514,94.0456403667957 L 176.4553146503239,111.00582057031019 L 181.9660112501052,127.9660007738247 L 181.9660112501052,127.9660007738247 M 172.46145789796893,-141.732 L 181.9660112501052,-134.82653777997712 L 191.47056460224147,-141.732 L 172.46145789796893,-141.732 L 172.46145789796893,-141.732 M 181.9660112501052,-44.784652851857054 L 167.5388202501893,-34.30268503076198 L 181.9660112501052,-23.820717209666903 L 196.3932022500211,-34.30268503076198 L 181.9660112501052,-44.784652851857054 L 181.9660112501052,-44.784652851857054 M 181.9660112501052,23.820717209666903 L 167.5388202501893,34.30268503076198 L 181.9660112501052,44.784652851857054 L 196.3932022500211,34.30268503076198 L 181.9660112501052,23.820717209666903 L 181.9660112501052,23.820717209666903 M 191.47056460224147,141.732 L 181.9660112501052,134.82653777997712 L 172.46145789796893,141.732 L 191.47056460224147,141.732 L 191.47056460224147,141.732 M 181.9660112501052,16.960180203514508 L 187.47670784988648,0.0 L 181.96601125010525,-16.960180203514508 L 176.4553146503239,0.0 L 181.9660112501052,16.960180203514508 L 181.9660112501052,16.960180203514508 M 198.68416010219946,-141.732 L 184.45824720006735,-131.39626927690088 L 189.96894379984863,-114.43608907338638 L 204.39613479976452,-124.91805689448145 L 198.93295351344207,-141.732 L 198.68416010219946,-141.732 L 198.68416010219946,-141.732 M 204.39613479976452,-120.67801184360283 L 189.96894379984863,-110.19604402250776 L 184.45824720006732,-93.23586381899327 L 198.8854381999832,-103.71783164008833 L 204.39613479976452,-120.67801184360283 L 204.39613479976452,-120.67801184360283 M 184.45824720006732,-86.37532681284087 L 189.96894379984863,-69.41514660932638 L 204.39613479976452,-58.933178788231324 L 198.8854381999832,-75.89335899174581 L 184.45824720006732,-86.37532681284087 L 184.45824720006732,-86.37532681284087 M 204.39613479976452,-54.69313373735268 L 189.96894379984863,-65.17510155844775 L 184.45824720006735,-48.21492135493325 L 198.88543819998324,-37.73295353383817 L 204.39613479976452,-54.69313373735268 L 204.39613479976452,-54.69313373735268 M 184.45824720006735,-20.390448706590703 L 189.96894379984863,-3.430268503076197 L 204.39613479976452,-13.912236324171273 L 198.88543819998324,-30.87241652768578 L 184.45824720006735,-20.390448706590703 L 184.45824720006735,-20.390448706590703 M 204.39613479976452,13.912236324171273 L 189.96894379984863,3.430268503076197 L 184.45824720006735,20.390448706590703 L 198.88543819998324,30.87241652768578 L 204.39613479976452,13.912236324171273 L 204.39613479976452,13.912236324171273 M 184.45824720006735,48.21492135493325 L 189.96894379984863,65.17510155844775 L 204.39613479976452,54.69313373735268 L 198.88543819998324,37.73295353383817 L 184.45824720006735,48.21492135493325 L 184.45824720006735,48.21492135493325 M 204.39613479976452,58.933178788231324 L 189.96894379984863,69.41514660932638 L 184.45824720006732,86.37532681284087 L 198.8854381999832,75.89335899174581 L 204.39613479976452,58.933178788231324 L 204.39613479976452,58.933178788231324 M 184.45824720006732,93.23586381899327 L 189.96894379984863,110.19604402250776 L 204.39613479976452,120.67801184360283 L 198.8854381999832,103.71783164008833 L 184.45824720006732,93.23586381899327 L 184.45824720006732,93.23586381899327 M 198.93295351344207,141.732 L 204.39613479976452,124.91805689448145 L 189.96894379984863,114.43608907338638 L 184.45824720006735,131.39626927690088 L 198.68416010219946,141.732 L 198.93295351344207,141.732 L 198.93295351344207,141.732 M 200.00000000000003,-79.323627494822 L 214.42719099991592,-89.80559531591706 L 200.00000000000003,-100.28756313701211 L 185.57280900008413,-89.80559531591706 L 200.00000000000003,-79.323627494822 L 200.00000000000003,-79.323627494822 M 200.00000000000003,100.28756313701211 L 214.42719099991592,89.80559531591706 L 200.00000000000003,79.323627494822 L 185.57280900008413,89.80559531591706 L 200.00000000000003,100.28756313701211 L 200.00000000000003,100.28756313701211 M 206.8883707497267,-10.481967821095076 L 192.46117974981078,0.0 L 206.88837074972668,10.481967821095076 L 221.31556174964257,0.0 L 206.8883707497267,-10.481967821095076 L 206.8883707497267,-10.481967821095076 M 202.49223594996218,-103.71783164008832 L 216.91942694987807,-93.23586381899327 L 222.43012354965936,-110.19604402250775 L 208.0029325497435,-120.67801184360283 L 202.49223594996218,-103.71783164008832 L 202.49223594996218,-103.71783164008832 M 222.43012354965936,-69.41514660932636 L 216.91942694987807,-86.37532681284087 L 202.49223594996218,-75.89335899174581 L 208.0029325497435,-58.93317878823129 L 222.43012354965936,-69.41514660932636 L 222.43012354965936,-69.41514660932636 M 222.43012354965938,-3.430268503076197 L 216.91942694987807,-20.390448706590703 L 202.49223594996215,-30.87241652768578 L 208.0029325497435,-13.912236324171273 L 222.43012354965938,-3.430268503076197 L 222.43012354965938,-3.430268503076197 M 202.49223594996215,30.87241652768578 L 216.91942694987807,20.390448706590703 L 222.43012354965938,3.430268503076197 L 208.0029325497435,13.912236324171273 L 202.49223594996215,30.87241652768578 L 202.49223594996215,30.87241652768578 M 202.49223594996218,75.89335899174581 L 216.91942694987807,86.37532681284087 L 222.43012354965936,69.41514660932636 L 208.0029325497435,58.93317878823129 L 202.49223594996218,75.89335899174581 L 202.49223594996218,75.89335899174581 M 222.43012354965936,110.19604402250775 L 216.91942694987807,93.23586381899327 L 202.49223594996218,103.71783164008832 L 208.0029325497435,120.67801184360283 L 222.43012354965936,110.19604402250775 L 222.43012354965936,110.19604402250775 M 220.75094947527552,-36.42270755620129 L 226.2616460750568,-53.382887759715786 L 208.42865727478764,-53.382887759715786 L 202.91796067500636,-36.42270755620129 L 220.75094947527552,-36.42270755620129 L 220.75094947527552,-36.42270755620129 M 208.42865727478764,53.382887759715786 L 226.2616460750568,53.382887759715786 L 220.75094947527552,36.42270755620129 L 202.91796067500636,36.42270755620129 L 208.42865727478764,53.382887759715786 L 208.42865727478764,53.382887759715786 M 203.39120071350936,-141.732 L 208.42865727478767,-126.22830287211833 L 226.26164607505683,-126.22830287211833 L 221.22418951377858,-141.732 L 203.39120071350936,-141.732 L 203.39120071350936,-141.732 M 221.22418951377858,141.732 L 226.26164607505683,126.22830287211833 L 208.42865727478767,126.22830287211833 L 203.39120071350936,141.732 L 221.22418951377858,141.732 L 221.22418951377858,141.732 M 230.3145,-26.85388942598722 L 221.86551127529236,-32.99243905312509 L 204.03252247502317,-32.992439053125096 L 218.45971347493906,-22.510471232030017 L 230.3145,-22.510471232030014 L 230.3145,-26.85388942598722 L 230.3145,-26.85388942598722 M 230.3145,22.510471232030014 L 218.45971347493906,22.510471232030017 L 204.03252247502317,32.992439053125096 L 221.86551127529236,32.99243905312509 L 230.3145,26.85388942598722 L 230.3145,22.510471232030014 L 230.3145,22.510471232030014 M 230.3145,-121.66417904024881 L 228.75388202501898,-122.79803436904214 L 210.92089322474982,-122.79803436904216 L 225.34808422466566,-112.31606654794707 L 230.3145,-112.31606654794707 L 230.3145,-121.66417904024881 L 230.3145,-121.66417904024881 M 230.3145,-67.29512408388705 L 225.34808422466566,-67.29512408388705 L 210.9208932247498,-56.81315626279198 L 228.75388202501895,-56.81315626279198 L 230.3145,-57.947011591585316 L 230.3145,-67.29512408388705 L 230.3145,-67.29512408388705 M 230.3145,57.947011591585316 L 228.75388202501895,56.81315626279198 L 210.9208932247498,56.81315626279198 L 225.34808422466566,67.29512408388705 L 230.3145,67.29512408388705 L 230.3145,57.947011591585316 L 230.3145,57.947011591585316 M 230.3145,112.31606654794707 L 225.34808422466566,112.31606654794707 L 210.92089322474982,122.79803436904216 L 228.75388202501898,122.79803436904214 L 230.3145,121.66417904024881 L 230.3145,112.31606654794707 L 230.3145,112.31606654794707 M 230.3145,-108.88579804487088 L 226.46264602468244,-108.88579804487088 L 220.9519494249012,-91.92561784135637 L 230.3145,-91.92561784135637 L 230.3145,-108.88579804487088 L 230.3145,-108.88579804487088 M 230.3145,91.92561784135637 L 220.9519494249012,91.92561784135637 L 226.46264602468244,108.88579804487088 L 230.3145,108.88579804487088 L 230.3145,91.92561784135637 L 230.3145,91.92561784135637 M 230.3145,-87.68557279047775 L 220.95194942490122,-87.68557279047775 L 226.4626460246825,-70.72539258696325 L 230.3145,-70.72539258696325 L 230.3145,-87.68557279047775 L 230.3145,-87.68557279047775 M 230.3145,70.72539258696325 L 226.4626460246825,70.72539258696325 L 220.95194942490122,87.68557279047775 L 230.3145,87.68557279047775 L 230.3145,70.72539258696325 L 230.3145,70.72539258696325 M 230.3145,-19.08020272895382 L 220.95194942490122,-19.08020272895382 L 226.46264602468253,-2.120022525439313 L 230.3145,-2.120022525439313 L 230.3145,-19.08020272895382 L 230.3145,-19.08020272895382 M 230.3145,2.120022525439313 L 226.46264602468253,2.120022525439313 L 220.95194942490122,19.08020272895382 L 230.3145,19.08020272895382 L 230.3145,2.120022525439313 L 230.3145,2.120022525439313 M 230.3145,-52.05787011905596 L 230.29416855007995,-52.0726417820789 L 224.78347195029866,-35.1124615785644 L 230.3145,-31.093934476865833 L 230.3145,-52.05787011905596 L 230.3145,-52.05787011905596 M 230.3145,31.093934476865833 L 224.78347195029866,35.1124615785644 L 230.29416855007995,52.0726417820789 L 230.3145,52.05787011905596 L 230.3145,31.093934476865833 L 230.3145,31.093934476865833 M 224.83098726375752,-141.732 L 230.29416855007997,-124.91805689448145 L 230.3145,-124.90328523145854 L 230.3145,-137.85970999629743 L 224.9847500480825,-141.732 L 224.83098726375752,-141.732 L 224.83098726375752,-141.732 M 230.3145,124.90328523145854 L 230.29416855007997,124.91805689448145 L 224.83098726375752,141.732 L 224.9847500480825,141.732 L 230.3145,137.85970999629743 L 230.3145,124.90328523145854 L 230.3145,124.90328523145854" fill="blue" stroke="none"/>
</svg>
